<svg width="167" height="112" viewBox="0 0 167 112" fill="none" xmlns="http://www.w3.org/2000/svg">
<path d="M68.4833 48.8335C68.4833 48.213 68.9741 47.7216 69.5672 47.7216C70.1602 47.7216 70.6777 48.213 70.6777 48.8335V55.9408H78.9377V48.8335C78.9377 48.213 79.4285 47.7216 80.0216 47.7216C80.6147 47.7216 81.1321 48.213 81.1321 48.8335V65.1144C81.1321 65.7097 80.6413 66.2262 80.0216 66.2262C79.4018 66.2262 78.9377 65.7097 78.9377 65.1144V57.9819H70.6777V65.1144C70.6777 65.7097 70.1869 66.2262 69.5672 66.2262C68.9474 66.2262 68.4833 65.7097 68.4833 65.1144V48.8335Z" fill="#181D27"></path>
<path d="M84.5111 59.4291C84.5111 55.6038 87.4543 52.5816 91.3256 52.5816C93.2101 52.5816 94.7847 53.3045 95.7914 54.2352C96.0242 54.4415 96.1784 54.7265 96.1784 55.0368C96.1784 55.2951 96.1013 55.5281 95.8433 55.8117L91.2485 61.3158C91.0424 61.5489 90.8096 61.6513 90.5264 61.6513C89.9585 61.6513 89.5449 61.2639 89.5449 60.7206C89.5449 60.4875 89.5967 60.256 89.7776 60.0749L93.8046 55.3203C93.133 54.7518 92.1781 54.4935 91.327 54.4935C88.6938 54.4935 86.6032 56.6637 86.6032 59.4291C86.6032 62.1946 88.6686 64.3648 91.327 64.3648C92.7979 64.3648 93.9603 63.7191 94.7609 62.8136C95.0441 62.5553 95.2769 62.349 95.6387 62.349C96.2318 62.349 96.6706 62.7631 96.6706 63.3317C96.6706 63.538 96.5416 63.823 96.3608 64.0293C95.2769 65.3222 93.4962 66.2782 91.327 66.2782C87.481 66.2782 84.5126 63.2545 84.5126 59.4306L84.5111 59.4291Z" fill="#181D27"></path>
<path d="M99.9993 58.1615C99.9993 54.8275 102.117 52.5801 105.316 52.5801C105.832 52.5801 106.271 52.9942 106.271 53.5361C106.271 54.0779 105.832 54.492 105.316 54.492C103.406 54.492 102.063 55.7582 102.063 58.1615V65.1649C102.063 65.7601 101.599 66.2248 101.031 66.2248C100.463 66.2248 99.9993 65.7601 99.9993 65.1649V58.1615Z" fill="#181D27"></path>
<path d="M119.384 64.2089C118.171 65.5019 116.493 66.2767 114.556 66.2767C110.762 66.2767 107.871 63.253 107.871 59.4291C107.871 55.6053 110.762 52.5816 114.556 52.5816C116.493 52.5816 118.17 53.3832 119.384 54.6494V48.7578C119.384 48.1892 119.848 47.7246 120.416 47.7246C120.984 47.7246 121.448 48.1892 121.448 48.7578V65.1679C121.448 65.7631 121.009 66.2277 120.416 66.2277C119.823 66.2277 119.384 65.7631 119.384 65.1679V64.2089ZM119.384 59.6355V59.2213C119.282 56.5346 117.241 54.492 114.687 54.492C112.132 54.492 109.963 56.637 109.963 59.4277C109.963 62.2183 112.053 64.3633 114.687 64.3633C117.32 64.3633 119.282 62.3223 119.384 59.634V59.6355Z" fill="#181D27"></path>
<path d="M124.855 59.4291C124.855 55.6038 127.798 52.5816 131.669 52.5816C133.554 52.5816 135.129 53.3045 136.135 54.2352C136.368 54.4415 136.522 54.7265 136.522 55.0368C136.522 55.2951 136.445 55.5281 136.187 55.8117L131.592 61.3158C131.386 61.5489 131.153 61.6513 130.87 61.6513C130.302 61.6513 129.889 61.2639 129.889 60.7206C129.889 60.4875 129.941 60.256 130.121 60.0749L134.148 55.3203C133.477 54.7518 132.522 54.4935 131.671 54.4935C129.038 54.4935 126.947 56.6637 126.947 59.4291C126.947 62.1946 129.012 64.3648 131.671 64.3648C133.142 64.3648 134.304 63.7191 135.103 62.8136C135.388 62.5553 135.619 62.349 135.981 62.349C136.576 62.349 137.013 62.7631 137.013 63.3317C137.013 63.538 136.884 63.823 136.703 64.0293C135.619 65.3222 133.837 66.2782 131.669 66.2782C127.823 66.2782 124.855 63.2545 124.855 59.4306V59.4291Z" fill="#181D27"></path>
<path d="M140.084 49.6336C140.084 48.9106 140.652 48.3406 141.375 48.3406C142.099 48.3406 142.666 48.9092 142.666 49.6336C142.666 50.3579 142.073 50.9265 141.375 50.9265C140.677 50.9265 140.084 50.3312 140.084 49.6336ZM140.342 53.6652C140.342 53.0967 140.781 52.6321 141.374 52.6321C141.967 52.6321 142.406 53.0967 142.406 53.6652V65.1649C142.406 65.7601 141.941 66.2248 141.374 66.2248C140.806 66.2248 140.342 65.7601 140.342 65.1649V53.6652Z" fill="#181D27"></path>
<path d="M47.8592 59.5019H35.4313C34.9678 59.5019 34.5921 59.878 34.5921 60.3421V62.1812C34.5921 62.6453 34.9678 63.0214 35.4313 63.0214H47.8592C48.3227 63.0214 48.6984 62.6453 48.6984 62.1812V60.3421C48.6984 59.878 48.3227 59.5019 47.8592 59.5019Z" fill="#181D27"></path>
<path d="M47.8592 50.9769H35.4313C34.9678 50.9769 34.5921 51.3531 34.5921 51.8171V53.6563C34.5921 54.1203 34.9678 54.4965 35.4313 54.4965H47.8592C48.3227 54.4965 48.6984 54.1203 48.6984 53.6563V51.8171C48.6984 51.3531 48.3227 50.9769 47.8592 50.9769Z" fill="#181D27"></path>
<path d="M31.0485 71.1322L28.7014 71.1441C28.0461 71.1441 27.5153 70.6127 27.5153 69.9566V44.0403C27.5153 43.3842 28.0461 42.8528 28.7014 42.8528L31.0485 42.8661C31.1019 42.8661 31.1538 42.8632 31.2057 42.8587C31.2264 42.8572 31.2457 42.8543 31.2665 42.8513C31.2917 42.8483 31.3154 42.8439 31.3391 42.8409C32.1753 42.7029 32.8129 41.977 32.8129 41.1012C32.8129 40.2254 32.165 39.4891 31.3198 39.3585C31.2457 39.3436 31.1701 39.3362 31.093 39.3362H25.779C24.796 39.3362 23.9998 40.1333 23.9998 41.1175V72.8853C23.9998 73.8695 24.796 74.6666 25.779 74.6666H31.0485C32.2065 74.6666 33.1035 73.5503 32.7254 72.3346C32.5 71.6102 31.8061 71.1337 31.0485 71.1337V71.1322Z" fill="#181D27"></path>
<path d="M52.242 42.8661L54.5891 42.8543C55.2444 42.8543 55.7752 43.3857 55.7752 44.0418V69.9566C55.7752 70.6127 55.2444 71.1441 54.5891 71.1441L52.242 71.1307C52.1886 71.1307 52.1367 71.1337 52.0848 71.1381C52.0641 71.1396 52.0448 71.1426 52.024 71.1456C51.9988 71.1485 51.9751 71.153 51.9514 71.156C51.1152 71.294 50.4776 72.0199 50.4776 72.8957C50.4776 73.7715 51.1255 74.5078 51.9707 74.6384C52.0448 74.6532 52.1204 74.6606 52.1975 74.6606H57.5115C58.4945 74.6606 59.2907 73.8635 59.2907 72.8794V41.1145C59.2907 40.1304 58.4945 39.3333 57.5115 39.3333H52.242C51.084 39.3333 50.187 40.4495 50.5651 41.6653C50.7904 42.3896 51.4843 42.8661 52.242 42.8661Z" fill="#181D27"></path>
</svg>