<svg width="1094" height="312" viewBox="0 0 1094 312" fill="none" xmlns="http://www.w3.org/2000/svg">
<g clip-path="url(#clip0_8172_1677)">
<path d="M388.931 108.968C391.188 100.927 396.521 86.0549 409.063 59.299C410.572 56.0797 412.082 52.9049 413.577 49.8043L452.519 49.0551L452.102 25.9859L425.127 26.5051C429.821 17.2774 433.041 11.2394 433.098 11.1207L413.512 0.00146484C413.426 0.164656 407.395 11.4916 399.69 26.9947L348.932 27.9664C354.028 17.9228 357.579 11.2468 357.643 11.1281L338.057 0.0088826C337.964 0.179491 331.56 12.2185 323.517 28.456L284.819 29.1978L285.236 52.267L312.319 51.7478C289.642 100.534 288.32 114.94 290.03 122.573C291.59 129.523 295.967 134.426 302.026 136.028C303.435 136.399 304.872 136.592 306.36 136.592C314.274 136.592 323.524 131.229 336.203 119.494C345.08 111.275 352.425 102.812 352.727 102.456L336.045 87.0934C328.67 95.6238 319.909 104.006 313.469 108.991C315.726 100.95 321.059 86.0771 333.601 59.3213C334.873 56.6064 336.153 53.9212 337.418 51.2804L388.442 50.3013C388.363 50.4719 388.277 50.6499 388.198 50.8205C365.097 100.364 363.753 114.895 365.478 122.58C367.037 129.53 371.415 134.434 377.474 136.036C378.882 136.407 380.32 136.6 381.808 136.6C389.721 136.6 398.972 131.236 411.65 119.502C420.527 111.283 427.873 102.819 428.175 102.463L411.492 87.1008C404.118 95.6312 395.356 104.013 388.916 108.998L388.931 108.968Z" fill="white"></path>
<path d="M158.873 71.2731V134.331H130.281V74.6481C130.281 60.0055 124.171 52.3504 113.045 52.3504C100.388 52.3504 93.84 61.133 93.84 79.8257V134.331H65.2552V74.6481C65.2552 60.0055 59.1458 52.3504 47.7966 52.3504C35.1322 52.3504 28.5916 61.133 28.5916 77.5782V134.331H-0.000450134V28.48H23.7831L24.8756 42.6702H25.314C31.2078 32.085 41.4644 26.2324 55.4298 26.2324C69.3952 26.2324 80.3059 32.315 86.6309 43.5751H87.0693C93.3944 31.8625 104.089 26.2324 120.671 26.2324C145.116 26.2324 158.866 42.4476 158.866 71.2731H158.873Z" fill="white"></path>
<path d="M251.397 134.332L250.528 120.142H250.089C243.319 130.504 231.977 136.587 216.703 136.587C187.673 136.587 166.505 113.392 166.505 81.4062C166.505 49.4208 187.673 26.2329 216.703 26.2329C231.761 26.2329 243.326 32.0855 249.874 42.2256H250.305L251.397 28.4879H275.188V134.339H251.397V134.332ZM247.466 81.4062C247.466 64.286 236.778 52.3583 221.497 52.3583C206.217 52.3583 195.313 64.2934 195.313 81.4062C195.313 98.519 206.008 110.462 221.497 110.462C236.986 110.462 247.466 98.519 247.466 81.4062Z" fill="white"></path>
<path d="M477.48 88.8304C480.528 103.243 493.192 111.128 510.866 111.128C525.709 111.128 538.366 106.626 546.653 98.2955H547.738V126.676C539.228 132.981 525.486 136.586 509.551 136.586C473.326 136.586 448.665 114.066 448.665 81.4052C448.665 48.7448 470.918 26.2319 502.126 26.2319C533.334 26.2319 553.848 45.8297 553.848 76.9026V88.8452H477.473L477.48 88.8304ZM477.48 71.0426H528.109C526.14 58.2025 516.537 51.6674 503.01 51.6674C490.792 51.6674 480.312 58.655 477.48 71.0426Z" fill="white"></path>
<path d="M634.823 134.326L633.731 119.23H633.293C627.183 130.268 616.272 136.573 601.43 136.573C576.339 136.573 561.496 119.683 561.496 91.08V28.4741H590.081V87.7049C590.081 102.348 597.067 110.455 609.063 110.455C622.159 110.455 630.015 101.22 630.015 84.7823V28.4741H658.607V134.326H634.823Z" fill="white"></path>
<path d="M744.583 32.9779V61.1357H743.49C736.727 54.1482 726.255 50.5506 712.936 50.5506C701.81 50.5506 696.347 53.9331 696.347 60.4607C696.347 65.1858 699.84 67.2183 713.367 68.1158C740.644 69.9183 751.339 79.8285 751.339 102.119C751.339 124.409 735.627 136.582 709.22 136.582C692.2 136.582 679.112 133.429 670.379 127.124V98.7437H671.687C679.766 107.749 691.985 112.259 707.919 112.259C719.046 112.259 724.508 108.884 724.508 102.119C724.508 96.4887 720.145 94.2412 705.734 92.8837C679.766 90.4062 669.509 82.2986 669.509 61.3508C669.509 40.4031 686.314 26.2129 712.282 26.2129C724.717 26.2129 736.504 28.6904 744.583 32.9705V32.9779Z" fill="white"></path>
<path d="M80.2987 159.736V211.749H79.8602C72.8596 204.524 63.0198 200.459 50.3267 200.459C21.2243 200.459 -0.000450134 223.714 -0.000450134 255.781C-0.000450134 287.848 21.2243 311.103 50.3267 311.103C65.6433 311.103 77.0211 305.005 83.799 294.62H84.2374L85.1071 308.848H108.955V159.736H80.2915H80.2987ZM55.1351 284.918C39.6029 284.918 28.8791 272.946 28.8791 255.788C28.8791 238.631 39.6029 226.659 55.1351 226.659C70.6674 226.659 81.1755 238.624 81.1755 255.788C81.1755 272.953 70.4517 284.918 55.1351 284.918Z" fill="white"></path>
<path d="M203.693 308.847L202.816 294.62H202.377C195.6 305.004 184.222 311.102 168.905 311.102C139.803 311.102 118.585 287.847 118.585 255.78C118.585 223.713 139.81 200.458 168.905 200.458C183.999 200.458 195.6 206.333 202.162 216.488H202.6L203.693 202.714H227.541V308.847H203.693ZM199.754 255.78C199.754 238.623 189.03 226.651 173.714 226.651C158.397 226.651 147.458 238.615 147.458 255.78C147.458 272.945 158.181 284.91 173.714 284.91C189.246 284.91 199.754 272.937 199.754 255.78Z" fill="white"></path>
<path d="M363.421 208.366V239.98H362.328C355.543 230.945 346.358 226.658 334.541 226.658C315.724 226.658 304.346 237.948 304.346 255.788C304.346 273.627 315.724 284.917 334.541 284.917C346.573 284.917 355.766 280.4 362.328 271.365H363.421V303.202C355.982 308.624 345.912 311.102 331.479 311.102C298 311.102 275.467 288.3 275.467 255.78C275.467 223.261 298 200.458 331.479 200.458C345.696 200.458 355.543 202.943 363.421 208.358V208.366Z" fill="white"></path>
<path d="M479.817 255.78C479.817 288.07 457.062 311.102 424.897 311.102C392.733 311.102 369.762 288.07 369.762 255.78C369.762 223.491 392.51 200.458 424.897 200.458C457.284 200.458 479.817 223.268 479.817 255.78ZM398.641 255.78C398.641 272.937 409.365 284.91 424.897 284.91C440.43 284.91 450.938 272.937 450.938 255.78C450.938 238.623 440.214 226.651 424.897 226.651C409.581 226.651 398.641 238.615 398.641 255.78Z" fill="white"></path>
<path d="M560.117 207.229V235.453H559.024C552.247 228.458 541.738 224.838 528.391 224.838C517.236 224.838 511.766 228.228 511.766 234.771C511.766 239.511 515.267 241.551 528.837 242.448C556.185 244.258 566.909 254.19 566.909 276.548C566.909 298.905 551.154 311.092 524.675 311.092C507.605 311.092 494.48 307.932 485.733 301.612V273.165H487.048C495.149 282.192 507.396 286.71 523.367 286.71C534.529 286.71 539.992 283.32 539.992 276.548C539.992 270.903 535.615 268.648 521.175 267.29C495.134 264.805 484.856 256.675 484.856 235.676C484.856 214.676 501.704 200.449 527.737 200.449C540.207 200.449 552.024 202.934 560.117 207.221V207.229Z" fill="white"></path>
<path d="M639.099 307.497C634.068 309.981 627.721 311.109 618.967 311.109C594.026 311.109 580.679 297.112 580.679 270.237V227.785H563.608V211.748L598.396 172.909H609.335V202.713H638.876V227.785H609.335V269.11C609.335 279.272 614.589 284.917 623.559 284.917C628.806 284.917 633.622 283.559 637.999 278.819H639.092V307.497H639.099Z" fill="white"></path>
<path d="M727.491 308.847L726.614 294.62H726.176C719.398 305.004 708.02 311.102 692.704 311.102C663.601 311.102 642.384 287.847 642.384 255.78C642.384 223.713 663.608 200.458 692.704 200.458C707.797 200.458 719.398 206.333 725.96 216.488H726.399L727.491 202.714H751.339V308.847H727.491ZM723.552 255.78C723.552 238.623 712.829 226.651 697.512 226.651C682.195 226.651 671.256 238.615 671.256 255.78C671.256 272.945 681.98 284.91 697.512 284.91C713.044 284.91 723.552 272.937 723.552 255.78Z" fill="white"></path>
<path d="M812.04 265.602C826.301 265.602 835.005 274.11 835.005 287.951C835.005 301.793 826.301 310.434 812.04 310.434H793.59V265.609H812.04V265.602ZM811.911 307.052C824.015 307.052 831.339 299.827 831.339 287.944C831.339 276.061 824.015 268.969 811.911 268.969H797.191V307.045H811.911V307.052Z" fill="white"></path>
<path d="M870.339 289.37H845.477V307.061H873.084V310.436H841.876V265.611H873.084V268.986H845.477V286.002H870.339V289.377V289.37Z" fill="white"></path>
<path d="M907.785 269.109V273.5H907.591C904.781 270.192 899.613 268.3 893.525 268.3C886.46 268.3 881.551 272.15 881.551 277.684C881.551 282.609 884.498 284.842 893.978 285.784C905.687 286.934 909.877 290.376 909.877 298.342C909.877 306.309 903.724 311.101 893.849 311.101C886.913 311.101 881.026 309.276 877.361 306.035V301.643H877.555C881.35 305.627 886.978 307.718 893.906 307.718C901.626 307.718 906.269 304.21 906.269 298.335C906.269 292.935 903.193 290.502 893.188 289.426C881.932 288.21 877.943 285.102 877.943 277.743C877.943 270.385 884.16 264.918 893.511 264.918C899.656 264.918 904.896 266.468 907.771 269.102L907.785 269.109Z" fill="white"></path>
<path d="M916.561 265.602H920.162V310.427H916.561V265.602Z" fill="white"></path>
<path d="M930.599 288.017C930.599 299.9 938.512 307.733 950.293 307.733C955.461 307.733 960.758 306.717 964.158 304.425V292.067H947.935V288.692H967.629V306.109C963.511 309.551 957.099 311.101 950.163 311.101C936.227 311.101 926.941 301.984 926.941 288.009C926.941 274.034 936.227 264.918 950.163 264.918C957.099 264.918 962.203 266.468 966.321 269.91V274.235H966.127C961.937 270.118 957.164 268.293 950.293 268.293C938.52 268.293 930.599 276.126 930.599 288.009V288.017Z" fill="white"></path>
<path d="M1008.46 310.427L979.086 269.444H978.956V310.427H975.42V265.602H980.523L1009.24 305.568H1009.37V265.602H1012.91V310.427H1008.46Z" fill="white"></path>
<path d="M1050.8 289.37H1025.94V307.061H1053.55V310.436H1022.34V265.611H1053.55V268.986H1025.94V286.002H1050.8V289.377V289.37Z" fill="white"></path>
<path d="M1059.13 310.427V265.602H1077.84C1087.65 265.602 1092.69 270.126 1092.69 278.902C1092.69 286.394 1088.96 290.785 1081.64 291.868L1094 310.434H1089.61L1077.78 292.135H1062.73V310.434H1059.13V310.427ZM1077.71 288.752C1085.24 288.752 1089.03 285.444 1089.03 278.894C1089.03 272.344 1085.24 268.969 1077.71 268.969H1062.73V288.752H1077.71Z" fill="white"></path>
</g>
<defs>
<clipPath id="clip0_8172_1677">
<rect width="1094" height="311.101" fill="white"></rect>
</clipPath>
</defs>
</svg>