<svg width="167" height="112" viewBox="0 0 167 112" fill="none" xmlns="http://www.w3.org/2000/svg">
<path d="M74.7296 48.7289H73.3258V50.6345H74.7296V48.7289Z" fill="#181D27"></path>
<path d="M102.183 53.1698C100.09 53.1698 98.7133 54.6783 98.0644 56.6897H98.0116C98.0116 56.5838 98.0116 56.4779 98.038 56.3721C98.0644 56.1868 98.0644 55.8957 98.0644 55.6178V54.7048C98.0644 53.6859 97.6144 53.2757 96.555 53.2757H94.5026V54.2946H96.3962C96.7933 54.2946 96.9655 54.4666 96.9655 54.8636V65.2776H94.8867V66.2965H100.157V65.2776H98.0778V60.6727C98.0778 58.0394 99.2961 54.2946 102.355 54.2946C102.54 54.2946 102.659 54.2946 102.779 54.3078C102.858 54.3343 102.911 54.3343 102.964 54.3343V53.236L102.726 53.183C102.58 53.1698 102.395 53.1698 102.183 53.1698Z" fill="#181D27"></path>
<path d="M83.0188 59.2224C81.1914 58.5211 79.4436 57.8595 79.4436 56.2715C79.4436 54.8159 80.9534 54.0617 82.5688 54.0617C84.0783 54.0617 85.5877 54.7101 85.5877 55.8349V56.9067H86.687V55.4776C86.687 53.7309 84.1842 53.0031 82.5156 53.0031C80.4235 53.0031 78.2915 54.1543 78.2915 56.3642C78.2915 58.5608 80.3309 59.3812 82.3037 60.1752C84.2107 60.8765 86.0511 61.5514 86.0511 63.2187C86.0511 64.7536 84.4092 65.5873 82.635 65.5873C81.0724 65.5873 78.8612 64.9918 78.8612 63.4436V62.4512H77.7753V63.576C77.7753 65.5344 80.1189 66.6459 82.5421 66.6459C85.3891 66.6459 87.2032 65.1903 87.2032 63.0996C87.2032 60.8897 85.0448 59.9899 83.0188 59.2224Z" fill="#181D27"></path>
<path d="M93.1885 65.4153C92.1424 65.4153 90.09 64.9654 90.09 61.5381V54.3263H93.4931V53.3074H90.0767V49.6949H88.9908V61.6175C88.9908 65.9446 91.7847 66.4342 93.1354 66.4342C93.3737 66.4342 93.5329 66.4342 93.5991 66.4077C93.6783 66.3812 93.7315 66.3812 93.7843 66.3812V65.3623C93.7579 65.3623 93.7051 65.3623 93.6255 65.3888C93.5459 65.4153 93.4135 65.4153 93.1885 65.4153Z" fill="#181D27"></path>
<path d="M64.6659 52.9899C62.2955 52.9899 60.2167 54.194 59.0115 56.0334V48.0938H55.4496V49.1127H57.926V66.3283H59.0115V63.523C60.2167 65.4153 62.2955 66.6327 64.6659 66.6327C68.3999 66.6327 71.4192 63.6156 71.4192 59.7385C71.4192 55.9275 68.3999 52.9899 64.6659 52.9899ZM64.6659 65.5741C61.5674 65.5741 59.0647 63.0731 59.0647 59.7385C59.0647 56.5097 61.5674 54.0617 64.6659 54.0617C67.7778 54.0617 70.2671 56.5097 70.2671 59.7385C70.2805 63.0731 67.7778 65.5741 64.6659 65.5741Z" fill="#181D27"></path>
<path d="M109.701 52.9899C105.98 52.9899 102.948 55.9275 102.948 59.7385C102.948 63.6156 105.967 66.6327 109.701 66.6327C113.422 66.6327 116.441 63.6156 116.441 59.7385C116.441 55.9275 113.435 52.9899 109.701 52.9899ZM109.701 65.5741C106.603 65.5741 104.1 63.0731 104.1 59.7385C104.1 56.5097 106.603 54.0617 109.701 54.0617C112.799 54.0617 115.302 56.5097 115.302 59.7385C115.302 63.0731 112.799 65.5741 109.701 65.5741Z" fill="#181D27"></path>
<path d="M76.1067 65.3623C74.862 65.3623 74.5708 64.3831 74.5708 63.3642V53.3074H71.0354V54.3263H73.485V63.4701C73.485 65.4682 74.3723 66.3812 75.9345 66.3812C76.2261 66.3812 76.3982 66.3813 76.5835 66.3548C76.7028 66.3283 76.7954 66.3283 76.875 66.3283L76.9014 65.3094C76.8218 65.3094 76.769 65.3094 76.6894 65.3359C76.6099 65.3623 76.3982 65.3623 76.1067 65.3623Z" fill="#181D27"></path>
<path d="M133.84 64.1847H135.112V66.3283H129.828V64.1847H131.285V56.3642L127.577 66.3283H125.763L121.95 56.3642V64.1847H123.499V66.3283H118.109V64.1847H119.381V55.0277H118.109V52.884H122.956L126.611 62.3718L130.265 52.884H135.112V55.0277H133.84V64.1847Z" fill="#181D27"></path>
<path d="M137.826 64.1847V55.0409H136.555V52.8972H142.752C144.633 52.8972 146.089 53.2942 147.44 54.6572C148.737 55.9804 149.333 57.7801 149.333 59.6458C149.333 61.3528 148.751 63.0599 147.599 64.3302C146.261 65.8387 144.685 66.3283 142.699 66.3283H136.542V64.1847H137.826ZM140.395 64.0126H142.408C143.692 64.0126 144.791 63.8406 145.692 62.8349C146.42 61.988 146.778 60.7441 146.778 59.6458C146.778 58.4417 146.433 57.1317 145.612 56.2451C144.685 55.3055 143.692 55.1732 142.448 55.1732H140.395V64.0126Z" fill="#181D27"></path>
<path d="M29.1119 64.4228V64.436H29.1252C29.6284 65.3491 30.8201 65.9049 31.0055 66.3151C31.2306 66.8179 31.4292 68.0882 31.4557 71.4096C31.4557 71.4096 31.4425 71.7934 31.4027 72.2962H33.0182C32.9917 71.7934 32.9785 71.4096 32.9785 71.4096C33.005 68.1015 33.2036 66.8311 33.4287 66.3151C33.6009 65.9049 34.8191 65.3491 35.3091 64.436H35.3223V64.4228C35.4547 64.1846 35.5871 63.8803 35.7063 63.47C35.9976 62.3056 35.4547 57.8594 35.2825 56.0598L34.8456 51.6666C34.8456 51.5871 34.7396 51.5078 34.594 51.5078C34.4483 51.5078 34.3292 51.5739 34.3292 51.6666L34.4881 59.9105C34.4881 60.0825 34.2894 60.2148 34.0511 60.2148C33.8127 60.2148 33.6009 60.0825 33.6009 59.9105L33.2433 51.5871C33.2433 51.5078 33.1242 51.4284 32.9785 51.4284C32.8328 51.4284 32.7136 51.5078 32.7136 51.5871V59.9105C32.7136 60.0825 32.515 60.2148 32.2767 60.2148H32.1575C31.9059 60.2148 31.7073 60.0825 31.7073 59.9105V51.5871H31.6941C31.6941 51.5078 31.5749 51.4284 31.4292 51.4284C31.2836 51.4284 31.1644 51.5078 31.1644 51.5871L30.8334 59.9105C30.8334 60.0825 30.6347 60.2148 30.3831 60.2148C30.1448 60.2148 29.9461 60.0825 29.9461 59.9105L30.105 51.6666C30.105 51.5871 29.9859 51.5078 29.8402 51.5078C29.6946 51.5078 29.5754 51.5739 29.5754 51.6666L29.1384 56.0598C28.9663 57.8594 28.4101 62.3056 28.7147 63.47C28.8338 63.8803 28.9795 64.1979 29.1119 64.4228Z" fill="#181D27"></path>
<path d="M29.7608 40.7232C29.7079 40.6967 29.6416 40.6703 29.5754 40.6835C28.9398 40.7894 28.3042 40.9349 27.6951 41.1202C27.6422 41.1334 27.5759 41.1731 27.5495 41.226C27.523 41.279 27.5097 41.3451 27.523 41.3981L29.1517 46.6514C29.1782 46.7573 29.2709 46.8102 29.3768 46.8102C29.3901 46.8102 29.4165 46.8102 29.443 46.797C29.7608 46.7043 30.0919 46.625 30.4626 46.5588C30.5818 46.5323 30.6745 46.4132 30.648 46.2941L29.8403 40.8688C29.8403 40.8158 29.8005 40.7629 29.7608 40.7232Z" fill="#181D27"></path>
<path d="M36.7126 41.1069C36.0903 40.9217 35.4547 40.7761 34.8191 40.6703C34.7529 40.657 34.6999 40.6835 34.6469 40.71C34.594 40.7497 34.5675 40.8026 34.5543 40.8555L33.7465 46.2809C33.72 46.4132 33.8127 46.5191 33.9319 46.5456C34.2894 46.6117 34.6469 46.6911 34.9647 46.7837C34.9912 46.797 35.0044 46.797 35.0309 46.797C35.1369 46.797 35.2296 46.744 35.2561 46.6382L36.8848 41.3848C36.898 41.3319 36.898 41.2657 36.8715 41.2128C36.8186 41.1731 36.7656 41.1202 36.7126 41.1069Z" fill="#181D27"></path>
<path d="M43.029 44.7591C43.029 44.693 43.0026 44.64 42.9496 44.6003C42.4729 44.1769 41.9697 43.7667 41.4533 43.3962C41.4003 43.3565 41.3341 43.3432 41.2679 43.3565C41.2149 43.3697 41.162 43.3962 41.1222 43.4623L37.9972 48.0408C37.9177 48.1467 37.9442 48.2923 38.0502 48.3584C38.3415 48.5701 38.6063 48.7951 38.8579 49.0333C38.8976 49.073 38.9638 49.0994 39.0168 49.0994C39.083 49.0994 39.136 49.073 39.189 49.02L42.9761 44.9444C43.0158 44.8782 43.029 44.8253 43.029 44.7591Z" fill="#181D27"></path>
<path d="M47.0677 50.6212C47.0809 50.5683 47.0809 50.5021 47.0677 50.4492C46.8293 49.8537 46.538 49.2715 46.2335 48.7025C46.207 48.6496 46.154 48.6099 46.0878 48.5966C46.0216 48.5834 45.9686 48.5834 45.9024 48.6099L41.003 51.4284C40.8971 51.4946 40.8574 51.6269 40.9103 51.7328C41.056 52.0371 41.2016 52.3415 41.3208 52.6723C41.3473 52.7252 41.387 52.7781 41.44 52.8046C41.4797 52.8178 41.5062 52.8178 41.5327 52.8178C41.5592 52.8178 41.5856 52.8178 41.6121 52.8046L46.9088 50.7271C47.0015 50.7271 47.0412 50.6742 47.0677 50.6212Z" fill="#181D27"></path>
<path d="M23.4048 51.4416L18.5054 48.6231C18.4524 48.5966 18.3862 48.5834 18.32 48.5966C18.2538 48.6098 18.2141 48.6495 18.1876 48.7025C17.883 49.2715 17.5917 49.8537 17.3534 50.4492C17.3269 50.5021 17.3269 50.5683 17.3534 50.6344C17.3798 50.6874 17.4196 50.7403 17.4858 50.7535L22.7825 52.8178C22.8089 52.831 22.8354 52.831 22.8619 52.831C22.9016 52.831 22.9281 52.8178 22.9546 52.8178C23.0208 52.7913 23.0605 52.7384 23.087 52.6855C23.2194 52.3547 23.3518 52.0371 23.4975 51.7327C23.5505 51.6401 23.5107 51.5078 23.4048 51.4416Z" fill="#181D27"></path>
<path d="M23.2724 43.4623C23.246 43.4094 23.1797 43.3697 23.1268 43.3697C23.0606 43.3565 23.0076 43.3697 22.9546 43.4094C22.425 43.7799 21.935 44.1901 21.4451 44.6136C21.3921 44.6533 21.3656 44.7062 21.3656 44.7724C21.3656 44.8253 21.3921 44.8915 21.4318 44.9312L25.219 49.0068C25.2587 49.0597 25.3249 49.073 25.3911 49.073C25.4441 49.073 25.4971 49.0597 25.55 49.02C25.8016 48.7818 26.0664 48.5569 26.3578 48.3452C26.4637 48.2658 26.4769 48.1334 26.4107 48.0276L23.2724 43.4623Z" fill="#181D27"></path>
<path d="M46.5778 56.47C46.5778 56.1392 46.2997 55.8613 45.9686 55.8613C45.6376 55.8613 45.3595 56.1392 45.3595 56.47C45.3595 56.5229 45.3728 56.5626 45.386 56.6023C45.4522 57.1184 45.4787 57.6609 45.4787 58.2035C45.4787 65.5211 39.5199 71.4626 32.2105 71.4626C24.8879 71.4626 18.9423 65.5079 18.9423 58.2035C18.9423 57.6477 18.9821 57.1184 19.0483 56.6023C19.0483 56.5626 19.0615 56.5229 19.0615 56.47C19.0615 56.1392 18.7967 55.8613 18.4524 55.8613C18.1214 55.8613 17.8433 56.1392 17.8433 56.47C17.7771 57.0523 17.7373 57.6345 17.7373 58.2035C17.7373 66.1827 24.2258 72.6667 32.2105 72.6667C40.1953 72.6667 46.6837 66.1827 46.6837 58.2035C46.6837 57.6345 46.644 57.0523 46.5778 56.47Z" fill="#181D27"></path>
</svg>