<svg width="167" height="112" viewBox="0 0 167 112" fill="none" xmlns="http://www.w3.org/2000/svg">
<path d="M102.667 64.0384H100.199V66.4963H102.667V64.0384Z" fill="#181D27"></path>
<path d="M95.1901 53.0943L96.6602 64.08L98.1285 53.0943H100.419L98.2768 66.4963H95.0195L92.8997 53.0943H95.1901Z" fill="#181D27"></path>
<path d="M65.2699 53.0943H64V54.8754H65.2699V66.4963H67.5026V54.8754H69.071V53.0943H67.5026V50.37C67.5026 49.9728 67.5854 49.6684 67.7779 49.4609C67.9712 49.2539 68.2679 49.1561 68.6683 49.1561H69.0705V47.3333H68.2629C67.2705 47.3333 66.315 47.5421 65.86 47.972C65.406 48.4014 65.2699 49.0686 65.2699 50.0199V53.0943Z" fill="#181D27"></path>
<path d="M69.768 66.4963H72.0062V53.0943H69.768V66.4963Z" fill="#181D27"></path>
<path d="M82.3396 60.554H87.0052V56.4237C86.9992 53.9527 85.8058 52.9398 83.5458 52.9398C81.1944 52.9398 80.0928 53.9504 80.0928 56.4396V63.2271C80.0992 65.492 81.4769 66.663 83.5445 66.663C85.612 66.663 86.9993 65.699 87.0052 63.2271V62.154H84.8435L84.846 63.426C84.846 64.3328 84.5048 64.9607 83.5893 64.9607C82.6734 64.9607 82.3394 64.3274 82.3394 63.4246L82.3396 60.554ZM82.3396 55.9789C82.3396 55.2229 82.5371 54.4401 83.5831 54.4401C84.6292 54.4401 84.8417 55.2115 84.8417 55.978V58.748H82.3396V55.9789Z" fill="#181D27"></path>
<path d="M77.0384 58.8771C75.3408 57.409 75.2084 57.197 75.2084 56.1035C75.2084 55.1712 75.2899 54.6041 76.1307 54.6041C76.9706 54.6041 77.0807 55.1644 77.0807 56.1139V57.351H79.2374V55.3325C79.2306 53.7475 78.0053 52.9412 76.0811 52.9412C74.1888 52.9412 72.9539 53.5686 72.9434 56.1035C72.942 56.5338 72.9438 56.5338 72.9434 56.3676C72.9471 57.1644 72.9507 58.4268 74.9291 60.1169L75.496 60.6002C76.9534 61.8242 77.1135 61.9719 77.1062 63.4273C77.1055 64.3242 77.0503 65.0041 76.1043 65.0041C75.1584 65.0041 75.0992 64.3192 75.0992 63.8961V62.1816H72.8352V63.951C72.8352 66.128 74.2579 66.6666 76.1016 66.6666C77.9466 66.6666 79.3721 66.123 79.3721 63.3213V63.0885C79.3671 61.1316 79.0113 60.6066 77.0384 58.8771Z" fill="#181D27"></path>
<path d="M90.0004 54.4741V53.0943H87.9611V66.4958H90.1615V57.1562C90.16 56.4341 90.3967 55.959 90.8081 55.6781C91.1975 55.4109 91.6771 55.3203 92.2863 55.3116V52.9407C91.1188 52.9643 90.6156 53.1939 90.0232 54.4252L90.0004 54.4741Z" fill="#181D27"></path>
</svg>