<svg width="167" height="112" viewBox="0 0 167 112" fill="none" xmlns="http://www.w3.org/2000/svg">
<path d="M90.6365 66.3987H92.0362L91.9853 62.5304H92.0107L93.9957 66.3987H95.8535V60.7236H94.4793L94.5047 64.5664H94.4793L92.5706 60.7236H90.6364L90.6365 66.3987ZM97.9405 66.3987H99.4419V61.8433H100.842V60.7236H96.5407V61.8433H97.9403L97.9405 66.3987ZM101.529 66.3987H103.03V64.1592H103.336C103.896 64.1592 104.099 64.4137 104.404 65.3807L104.735 66.3987H106.313L105.753 64.8463C105.473 64.1591 105.448 63.7265 104.939 63.5993V63.5738C105.677 63.3957 106.033 62.8867 106.033 62.1487C106.033 61.1816 105.219 60.7235 104.201 60.7235H101.503L101.529 66.3987ZM103.03 61.7925H103.437C104.023 61.7925 104.532 61.8943 104.532 62.4287C104.532 63.0649 103.921 63.0904 103.437 63.0904H103.03V61.7925ZM54.5501 66.3987H56.077L56.5351 65.1772H58.6728L59.1055 66.3987H60.7343L58.5456 60.7236H56.6878C56.7132 60.7236 54.5501 66.3987 54.5501 66.3987ZM58.3166 64.1083H56.8914L57.6295 61.8943H57.6549L58.3166 64.1083ZM49.7912 66.3987H52.1834C53.2013 66.3987 54.3974 66.1188 54.3974 64.7699C54.3974 64.0828 54.0157 63.6756 53.2522 63.5229V63.4975C53.8884 63.2939 54.2447 62.8867 54.2447 62.1741C54.2447 61.207 53.4558 60.7235 52.4124 60.7235H49.7911L49.7912 66.3987ZM51.2926 63.981H51.7507C52.2597 63.981 52.8705 64.0319 52.8705 64.6681C52.8705 65.2535 52.2851 65.3298 51.7507 65.3298H51.2926V63.981ZM51.2926 61.7923H51.7253C52.2342 61.7923 52.7178 61.8432 52.7178 62.3522C52.7178 62.8357 52.2088 62.963 51.6998 62.963H51.2926L51.2926 61.7923ZM61.0905 66.3986H62.4901L62.4392 62.5303H62.4647L64.4497 66.3986H66.3329V60.7234H64.9586L64.984 64.5663H64.9586L63.0244 60.7234H61.0903L61.0905 66.3986ZM71.8554 65.0752C71.3974 65.2534 70.9138 65.3552 70.4303 65.3806C69.336 65.3806 68.5471 64.6935 68.5471 63.5991C68.5471 62.5303 69.2597 61.7668 70.3286 61.7668C70.8376 61.7668 71.3466 61.8941 71.8047 62.174L71.932 60.9524C71.3975 60.7743 70.8122 60.6725 70.2523 60.6471C68.3945 60.6471 66.9949 61.6396 66.9949 63.5991C66.9949 65.7368 68.7509 66.5004 70.2523 66.5004C70.8122 66.5004 71.3975 66.424 71.932 66.2714L71.8554 65.0752ZM72.0845 63.5483C72.0845 65.3551 73.077 66.4749 74.9347 66.4749C76.7926 66.4749 77.785 65.3551 77.785 63.5483C77.785 61.7414 76.8179 60.6217 74.9347 60.6217C73.0516 60.6217 72.0845 61.7414 72.0845 63.5483ZM73.6369 63.5483C73.6369 62.5558 73.9932 61.7414 74.9094 61.7414C75.8256 61.7414 76.1818 62.5813 76.1818 63.5483C76.1818 64.4899 75.8256 65.3551 74.9094 65.3551C73.9932 65.3551 73.6369 64.4898 73.6369 63.5483ZM85.0127 65.0752C84.5547 65.2534 84.0711 65.3552 83.5876 65.3806C82.4933 65.3806 81.7044 64.6935 81.7044 63.5991C81.7044 62.5303 82.417 61.7668 83.4859 61.7668C83.9949 61.7668 84.5039 61.8941 84.962 62.174L85.0893 60.9524C84.5294 60.7743 83.9695 60.6725 83.3841 60.6471C81.5263 60.6471 80.1267 61.6396 80.1267 63.5991C80.1267 65.7368 81.8827 66.5004 83.3841 66.5004C83.944 66.5004 84.5293 66.424 85.0638 66.2714L85.0127 65.0752ZM85.7762 66.3986H89.8736V65.3297H87.3032V64.0573H89.6445V62.9884H87.3032V61.8177H89.7972V60.7489H85.8017L85.7762 66.3986ZM106.492 66.3986H108.019L108.477 65.177H110.614L111.047 66.3986H112.701L110.513 60.7234H108.655L106.492 66.3986ZM110.233 64.1082H108.808L109.546 61.8942H109.571L110.233 64.1082ZM113.032 66.3986H116.875V65.2788H114.534V60.7234H113.032V66.3986ZM79.6177 57.8732H85.2928L87.0743 56.0917H81.3991V52.9106H82.468L84.2495 51.1291H79.9741V46.8791L78.1926 48.6605V49.7294H75.0115V44.0542L73.23 45.8357V51.5109H76.4366V54.692H79.6432V57.8731L79.6177 57.8732ZM86.0054 45.1232V40.8732L87.7869 39.0917V43.3671H92.0369L90.2554 45.1486L86.0054 45.1232ZM81.3991 39.0918H79.974V43.3419H84.224L82.4426 45.1233H78.1925V44.0545H76.411V42.6293L81.3991 37.6667V39.0918ZM92.0369 51.1547V49.7296H93.462L88.4739 54.6922H87.0488V52.9107H85.9799V48.6607L87.7614 46.8792V51.1546L92.0369 51.1547ZM62.363 74.8984H64.4244C66.3585 74.8984 67.7837 74.1604 67.7837 72.0481C67.7837 69.8594 66.4094 69.2232 64.4244 69.2232H62.363V74.8984ZM63.8645 70.343H64.4498C65.5441 70.343 66.2058 70.9283 66.2058 72.0481C66.2058 73.1679 65.5696 73.7533 64.4498 73.7533H63.8645V70.343ZM68.1145 72.0735C68.1145 73.8803 69.107 75.0001 70.9648 75.0001C72.8226 75.0001 73.815 73.8803 73.815 72.0735C73.815 70.2666 72.848 69.1469 70.9648 69.1469C69.0816 69.1469 68.1145 70.2412 68.1145 72.0735ZM69.6668 72.0735C69.6668 71.081 70.0231 70.2666 70.9393 70.2666C71.8555 70.2666 72.2118 71.1065 72.2118 72.0735C72.2118 73.0151 71.8555 73.8803 70.9393 73.8803C70.0231 73.8803 69.6668 72.9896 69.6668 72.0735ZM76.4109 74.8984H78.8031C79.8211 74.8984 81.0172 74.6184 81.0172 73.2696C81.0172 72.5825 80.6354 72.1753 79.8719 72.0226V71.9971C80.5082 71.7935 80.8645 71.3863 80.8645 70.6738C80.8645 69.7067 80.0755 69.2232 79.0321 69.2232H76.4109L76.4109 74.8984ZM77.9379 72.4807H78.3959C78.9049 72.4807 79.5157 72.5316 79.5157 73.1424C79.5157 73.7277 78.9304 73.804 78.3959 73.804H77.9379V72.4807ZM77.9379 70.292H78.3705C78.8795 70.292 79.363 70.3429 79.363 70.8519C79.363 71.3354 78.854 71.4627 78.3451 71.4627H77.9124L77.9379 70.292ZM81.7044 74.8982H83.2058V72.6587H83.5112C84.0711 72.6587 84.2747 72.9132 84.5801 73.8803L84.9109 74.8982H86.4887L85.9288 73.3458C85.6489 72.6587 85.6235 72.226 85.1145 72.0988V72.0733C85.8525 71.8952 86.2088 71.4116 86.2088 70.6482C86.2088 69.6811 85.3944 69.2231 84.3765 69.2231H81.6789L81.7044 74.8982ZM83.2313 70.292H83.6385C84.2238 70.292 84.7328 70.3938 84.7328 70.9282C84.7328 71.5644 84.122 71.5899 83.6385 71.5899H83.2313V70.292ZM86.667 74.8982H88.1939L88.652 73.6767H90.7643L91.197 74.8982H92.8511L90.6625 69.2231H88.8046L86.667 74.8982ZM90.4334 72.6079H89.0083L89.7463 70.3938H89.7718L90.4334 72.6079ZM97.9409 74.8982H99.4424V69.2231H97.9409V74.8982ZM100.486 74.8982H104.329V73.7785H101.987V69.2231H100.486V74.8982ZM93.0802 74.7456C93.64 74.9237 94.1999 75 94.7598 75C96.0323 75 97.2539 74.5929 97.2539 73.1169C97.2539 71.0809 94.5818 71.6917 94.5818 70.7755C94.5818 70.292 95.218 70.2411 95.5997 70.2411C96.0324 70.2411 96.465 70.3174 96.8722 70.4956L96.974 69.3249C96.4905 69.1722 96.0069 69.0959 95.4979 69.1213C94.3527 69.1213 93.0293 69.5031 93.0293 70.8518C93.0293 72.9132 95.7014 72.2515 95.7014 73.2949C95.7014 73.753 95.2433 73.8548 94.7598 73.8548C94.2254 73.8548 93.6909 73.7275 93.2075 73.473L93.0802 74.7456Z" fill="#181D27"></path>
</svg>