<svg width="167" height="112" viewBox="0 0 167 112" fill="none" xmlns="http://www.w3.org/2000/svg">
<path fill-rule="evenodd" clip-rule="evenodd" d="M79.3776 66.314L74.8129 59.9753L73.0105 61.7502V66.314H70.7633V47.7205H73.0105V57.0736C73.0105 57.2614 72.987 57.5338 72.9636 57.8907C72.9403 58.2475 72.9169 58.5527 72.87 58.8062C72.8466 59.0598 72.8466 59.2052 72.8466 59.2428H73.0105L79.3074 53.0449L81.2971 53.9466L76.4047 58.595L82.1398 66.314H79.3776ZM90.1455 50.3968C90.1455 50.7912 90.0051 51.1247 89.7241 51.397C89.4667 51.6693 89.1389 51.8055 88.741 51.8055C88.3431 51.8055 88.0153 51.6693 87.7344 51.397C87.4769 51.1247 87.3365 50.7912 87.3365 50.3968C87.3365 50.0024 87.4769 49.669 87.7344 49.3967C88.0153 49.1244 88.3431 48.9883 88.741 48.9883C89.1389 48.9883 89.4667 49.1244 89.7241 49.3967C90.0051 49.669 90.1455 50.0024 90.1455 50.3968ZM83.4038 66.314V64.4828L87.6174 64.2012V55.4678H83.6848V53.6649L89.8646 53.3549V64.2012L94.0781 64.4828V66.314H83.4038ZM106.719 61.5531C106.719 62.2479 106.578 62.9006 106.297 63.511C106.016 64.1213 105.642 64.6566 105.15 65.1167C104.682 65.5769 104.12 65.9385 103.465 66.2014C102.809 66.4643 102.107 66.5958 101.382 66.5958C100.937 66.5958 100.445 66.5206 99.9067 66.3703C99.3448 66.2201 98.8068 66.0323 98.292 65.8069V71.6667H96.0444V53.3549H98.292V55.2706C98.292 55.4397 98.2681 55.6415 98.2449 55.8763C98.2217 56.111 98.1979 56.3036 98.1747 56.4538C98.1515 56.6041 98.1515 56.6885 98.1515 56.7073H98.292C98.502 56.4256 98.7366 56.0782 99.0407 55.665C99.3216 55.2518 99.6728 54.8527 100.047 54.4676C100.445 54.0826 100.913 53.754 101.429 53.4816C101.943 53.2093 102.505 53.0732 103.137 53.0732C103.793 53.0732 104.355 53.1906 104.799 53.4253C105.244 53.6601 105.619 53.9606 105.899 54.3268C106.18 54.693 106.391 55.1064 106.508 55.5665C106.648 56.0266 106.719 56.4727 106.719 56.9047V61.5531ZM104.471 56.9047C104.471 56.191 104.308 55.7072 104.027 55.4537C103.723 55.2001 103.395 55.0735 103.067 55.0735C102.458 55.0735 101.896 55.2706 101.358 55.665C100.797 56.0594 100.328 56.5101 99.9067 57.0172C99.4853 57.5244 99.1341 58.0221 98.8532 58.5104C98.5723 58.9987 98.3854 59.3462 98.292 59.5528V63.7503C98.83 64.0696 99.3687 64.2998 99.9067 64.4407C100.469 64.5815 100.937 64.652 101.382 64.652C101.78 64.652 102.154 64.5768 102.529 64.4266C102.903 64.2763 103.231 64.079 103.535 63.8349C103.816 63.5907 104.05 63.3043 104.214 62.9756C104.378 62.6469 104.471 62.3042 104.471 61.9474V56.9047ZM119.359 61.2431C119.359 61.9756 119.219 62.6704 118.938 63.3277C118.657 63.9851 118.283 64.5533 117.791 65.0322C117.323 65.5111 116.761 65.8915 116.106 66.1732C115.45 66.4549 114.748 66.5958 114.022 66.5958C113.297 66.5958 112.594 66.4549 111.939 66.1732C111.283 65.8915 110.721 65.5111 110.23 65.0322C109.762 64.5533 109.388 63.9898 109.107 63.3419C108.826 62.6939 108.685 62.0038 108.685 61.2713V58.4259C108.685 57.6934 108.826 56.9986 109.107 56.3412C109.388 55.6839 109.762 55.1157 110.23 54.6368C110.721 54.1578 111.283 53.7775 111.939 53.4958C112.594 53.214 113.297 53.0732 114.022 53.0732C114.748 53.0732 115.45 53.214 116.106 53.4958C116.761 53.7775 117.323 54.1578 117.791 54.6368C118.283 55.1157 118.657 55.6839 118.938 56.3412C119.219 56.9986 119.359 57.6934 119.359 58.4259V61.2431ZM117.112 58.2287C117.112 57.7967 117.019 57.3929 116.878 57.0172C116.714 56.6417 116.48 56.313 116.199 56.0312C115.918 55.7495 115.591 55.5242 115.216 55.3552C114.841 55.1862 114.444 55.1015 114.022 55.1015C113.577 55.1015 113.18 55.1862 112.805 55.3552C112.43 55.5242 112.103 55.7495 111.822 56.0312C111.541 56.313 111.33 56.6417 111.167 57.0172C111.002 57.3929 110.932 57.7967 110.932 58.2287V61.4402C110.932 61.8722 111.002 62.2761 111.167 62.6517C111.33 63.0273 111.541 63.356 111.822 63.6377C112.103 63.9194 112.43 64.1447 112.805 64.3137C113.18 64.4828 113.577 64.5674 114.022 64.5674C114.444 64.5674 114.841 64.4828 115.216 64.3137C115.591 64.1447 115.918 63.9194 116.199 63.6377C116.48 63.356 116.714 63.0273 116.878 62.6517C117.019 62.2761 117.112 61.8722 117.112 61.4402V58.2287ZM129.753 66.314V56.9047C129.753 56.191 129.589 55.7072 129.308 55.4537C129.003 55.2001 128.676 55.0735 128.348 55.0735C127.74 55.0735 127.178 55.2753 126.639 55.6791C126.077 56.0829 125.61 56.5477 125.188 57.0736C124.767 57.5995 124.416 58.1159 124.135 58.623C123.854 59.1301 123.666 59.487 123.573 59.6936V66.314H121.325V53.3549H123.573V55.2424C123.573 55.4302 123.55 55.6557 123.526 55.9187C123.503 56.1815 123.479 56.3974 123.456 56.5664C123.432 56.7355 123.432 56.8294 123.432 56.8482H123.573C123.784 56.5664 124.017 56.2097 124.322 55.7778C124.603 55.3458 124.954 54.9325 125.329 54.5381C125.726 54.1437 126.195 53.801 126.71 53.5099C127.224 53.2188 127.786 53.0732 128.418 53.0732C129.074 53.0732 129.635 53.1906 130.081 53.4253C130.525 53.6601 130.9 53.9606 131.181 54.3268C131.462 54.693 131.672 55.1064 131.79 55.5665C131.93 56.0266 132 56.4727 132 56.9047V66.314H129.753Z" fill="#181D27"></path>
<path fill-rule="evenodd" clip-rule="evenodd" d="M49.5088 56.545L42.0498 64.0256L34.6747 56.6291L34.6738 41.6667L49.5088 56.545ZM43.4984 65.4785L50.9574 57.9978L63.1365 70.2124C63.249 70.3252 63.3256 70.469 63.3565 70.6255C63.3873 70.782 63.3711 70.9442 63.3098 71.0915C63.1845 71.3933 62.8953 71.5842 62.5686 71.5878C58.996 71.5849 51.5728 71.5886 49.9192 71.5866C49.7066 71.5872 49.5037 71.5012 49.3533 71.3503L43.4984 65.4785Z" fill="#181D27"></path>
<path fill-rule="evenodd" clip-rule="evenodd" d="M49.2485 41.9997C49.3498 41.8984 49.4762 41.8263 49.6148 41.7907C49.7533 41.7552 49.8988 41.7575 50.0361 41.7975L59.8994 44.5906C60.1732 44.6687 60.3842 44.8844 60.4581 45.163C60.5277 45.4353 60.4474 45.7294 60.2466 45.9309L34.6669 71.5851L34.6678 56.6227L49.2485 41.9997Z" fill="#5C5C5C"></path>
</svg>