<svg width="165" height="112" viewBox="0 0 165 112" fill="none" xmlns="http://www.w3.org/2000/svg">
<path d="M80.1298 38.0228C79.0838 38.0474 78.3166 38.0838 76.9099 38.1698C76.2593 38.2082 75.5491 38.2649 75.049 38.3145C74.9234 38.328 74.6608 38.3529 74.4668 38.3711C73.6516 38.4504 72.4413 38.6017 71.9322 38.6878C71.8247 38.7059 71.6672 38.7309 71.5783 38.7444C71.4915 38.7558 71.3361 38.7828 71.2356 38.801C71.1353 38.8192 70.9662 38.8509 70.859 38.8688C70.482 38.9322 69.8406 39.0613 69.4775 39.1473C69.3769 39.1722 69.1965 39.215 69.0778 39.2424C68.959 39.2694 68.8519 39.2943 68.8382 39.2966C68.1689 39.4548 67.5044 39.7741 66.993 40.1881C66.4951 40.5887 66.0501 41.2358 65.8262 41.8784C65.7898 41.9779 65.753 42.0797 65.7418 42.1047C65.703 42.1907 65.5339 42.9146 65.4128 43.5077C65.3948 43.6072 65.3628 43.7542 65.3444 43.8358C65.326 43.917 65.3012 44.0596 65.2851 44.1524C65.2713 44.2451 65.2531 44.3584 65.2416 44.4012C65.2073 44.5304 65.0681 45.4128 64.9789 46.0531C64.8922 46.6732 64.8351 47.1236 64.785 47.5805C64.7598 47.8044 64.7347 48.0239 64.7302 48.067C64.7234 48.1098 64.7027 48.3294 64.6822 48.5536C64.6639 48.7775 64.6367 49.0513 64.6227 49.1646C64.5747 49.5807 64.4559 51.3934 64.3968 52.6719C64.3512 53.6197 64.3215 55.6496 64.3375 56.7561C64.3535 58.1363 64.3875 59.3697 64.4195 59.7996C64.4311 59.9736 64.4539 60.3404 64.4675 60.6142C64.4812 60.8879 64.4995 61.2386 64.511 61.3947C64.5635 62.1777 64.6047 62.6912 64.6251 62.8541C64.6367 62.9538 64.6639 63.2186 64.6822 63.4401C64.7006 63.662 64.7279 63.9267 64.7394 64.0285C64.753 64.1304 64.7782 64.3498 64.7962 64.5174C64.8534 65.0536 64.8969 65.4042 64.9334 65.6375C64.9517 65.7619 64.9837 65.9746 65.0018 66.1126C65.0681 66.6103 65.1456 67.0944 65.2301 67.5382C65.2484 67.6377 65.2781 67.8053 65.2988 67.9115C65.3376 68.1377 65.4267 68.5881 65.4907 68.8731C65.7098 69.8712 65.8057 70.1696 66.0637 70.6608C66.1344 70.7964 66.2257 70.9548 66.2669 71.0115C66.3056 71.0681 66.3628 71.1494 66.3924 71.1925C66.5227 71.3848 66.895 71.7604 67.1005 71.9054C67.1345 71.93 67.2009 71.9775 67.2441 72.0116C67.29 72.0476 67.3332 72.0749 67.3448 72.0749C67.3539 72.0749 67.3767 72.0908 67.3948 72.109C67.4839 72.195 68.112 72.4914 68.3812 72.5706C68.4316 72.5864 68.4932 72.6066 68.5184 72.6181C68.5779 72.6452 68.9133 72.7288 69.3176 72.8195C69.4935 72.8603 69.6739 72.9031 69.7172 72.9145C69.8222 72.9415 70.4844 73.0727 70.9846 73.1634C71.2721 73.2153 71.8318 73.3036 72.1833 73.3535C72.3157 73.3714 72.4848 73.3963 72.5601 73.4099C72.8363 73.4574 73.9782 73.5889 74.6951 73.6567C74.9531 73.6816 75.2705 73.711 75.4029 73.7244C75.6176 73.747 75.8367 73.7652 76.8871 73.8398C77.0446 73.8512 77.4033 73.8715 77.6864 73.8853C77.9695 73.8988 78.3646 73.9191 78.5656 73.9305C80.1914 74.0232 84.8404 74.0232 86.4434 73.9305C86.6444 73.917 87.0395 73.8988 87.3226 73.8853C87.8089 73.8627 87.9871 73.8512 88.7497 73.7946C89.7269 73.7201 91.1635 73.5818 91.6497 73.5141C91.7889 73.4938 92.0288 73.4621 92.1863 73.4416C92.7685 73.367 93.5678 73.247 94.0244 73.1634C94.5246 73.0727 95.1867 72.9415 95.2919 72.9145C95.3351 72.9031 95.5154 72.8603 95.6914 72.8195C96.0864 72.7311 96.429 72.6452 96.4906 72.6181C96.5665 72.591 96.6426 72.5646 96.7189 72.5389C96.9061 72.4779 97.5274 72.1859 97.5798 72.136C97.5957 72.1201 97.6414 72.0864 97.6802 72.0635C97.8584 71.9528 97.9405 71.8895 98.1028 71.7445C98.2855 71.5793 98.539 71.3079 98.6005 71.2151C98.621 71.1834 98.6758 71.1066 98.7214 71.0455C98.7694 70.9822 98.8082 70.9255 98.8082 70.9164C98.8082 70.9073 98.8449 70.8439 98.8881 70.7761C98.9317 70.7083 98.9841 70.6086 99.0048 70.5543C99.0276 70.5024 99.0503 70.4457 99.0596 70.4346C99.1028 70.3779 99.2627 69.9275 99.3311 69.6719C99.4386 69.276 99.6394 68.3414 99.7125 67.9C99.7309 67.787 99.7513 67.6808 99.7582 67.6626C99.7789 67.6127 99.9045 66.8365 100.018 66.0448C100.044 65.8705 100.069 65.6962 100.076 65.6601C100.094 65.5559 100.176 64.8613 100.213 64.4948C100.231 64.3137 100.256 64.1054 100.27 64.0308C100.284 63.956 100.308 63.7118 100.327 63.4877C100.345 63.2638 100.37 62.9877 100.382 62.8767C100.395 62.7637 100.416 62.5058 100.429 62.2997C100.443 62.0938 100.464 61.8405 100.475 61.7341C100.489 61.6278 100.514 61.2363 100.532 60.863C100.553 60.4895 100.576 60.0302 100.589 59.8448C100.692 58.1996 100.692 53.8824 100.589 52.1854C100.578 51.9928 100.557 51.6152 100.544 51.3481C100.53 51.0811 100.509 50.7281 100.498 50.5673C100.484 50.4044 100.455 50.0039 100.429 49.6737C100.404 49.3433 100.379 49.0331 100.372 48.9835C100.365 48.9336 100.345 48.7141 100.327 48.497C100.308 48.2799 100.288 48.0761 100.281 48.0445C100.274 48.0128 100.249 47.8044 100.224 47.5805C100.165 47.0396 100.092 46.4425 100.076 46.3724C100.069 46.3407 100.044 46.1596 100.018 45.9739C99.9065 45.1278 99.699 43.9487 99.5206 43.1456C99.4955 43.0323 99.4546 42.8492 99.4294 42.7383C99.3655 42.4486 99.29 42.1567 99.2651 42.1047C99.2536 42.0797 99.2331 42.0187 99.2171 41.9689C99.1668 41.8016 98.9133 41.2426 98.8493 41.1542C98.8401 41.1407 98.7673 41.0345 98.6894 40.9168C98.5274 40.6747 98.1119 40.2448 97.8629 40.0637C97.3698 39.704 96.8216 39.4595 96.114 39.2875C95.992 39.258 95.8702 39.2278 95.7486 39.1969C95.6641 39.1722 95.495 39.1359 95.1319 39.0613C95.029 39.0399 94.9263 39.018 94.8237 38.9955C94.383 38.8893 92.9489 38.6584 92.0151 38.5407C91.8276 38.5181 91.6429 38.4932 91.6041 38.4844C91.5354 38.4706 91.2043 38.4368 90.5309 38.3711C90.3434 38.3529 90.0855 38.3259 89.96 38.3145C89.8344 38.3009 89.6082 38.2807 89.4577 38.2669C89.3069 38.2558 89.0603 38.2352 88.9096 38.2241C88.3981 38.181 86.9779 38.0997 86.1923 38.0656C84.6736 37.9999 81.8696 37.9796 80.1298 38.0228ZM70.0689 53.3122C70.0826 53.3234 70.1489 53.3439 70.2149 53.3597C70.3384 53.3891 70.512 53.4683 70.6419 53.5543C70.7447 53.6221 70.9869 53.88 71.0346 53.9707C71.0577 54.0159 71.0826 54.0567 71.0894 54.0635C71.0965 54.0702 71.1169 54.1154 71.1353 54.1653C71.1513 54.2149 71.1717 54.2671 71.1833 54.2783C71.2128 54.3214 71.2472 54.5905 71.2472 54.7898C71.2472 54.9843 71.2173 55.2129 71.1786 55.2966C71.0554 55.5771 70.9959 55.6698 70.8407 55.8329C70.6967 55.98 70.6375 56.0252 70.4412 56.1203C70.2812 56.1995 70.1669 56.2403 70.0757 56.2491C70.0026 56.2581 69.9386 56.274 69.9318 56.2832C69.9159 56.3104 69.4204 56.3104 69.4204 56.2832C69.4204 56.274 69.3632 56.2581 69.29 56.2491C69.2193 56.2403 69.1305 56.2198 69.0917 56.2039C69.0421 56.1818 68.9919 56.1615 68.9409 56.1428C68.8974 56.1271 68.8563 56.1088 68.8494 56.102C68.8426 56.093 68.8083 56.0727 68.7695 56.0546C68.6371 55.9891 68.3631 55.688 68.2832 55.5228C68.2397 55.4345 68.1988 55.3485 68.1873 55.3306C68.1097 55.1766 68.096 54.4752 68.1689 54.3123C68.1897 54.2692 68.2192 54.197 68.2352 54.1538C68.2512 54.111 68.2696 54.0702 68.2764 54.0635C68.2832 54.0567 68.3105 54.0112 68.3357 53.9616C68.3792 53.8777 68.6507 53.5881 68.6896 53.5881C68.6987 53.5881 68.7194 53.5722 68.7354 53.552C68.7786 53.5044 69.0002 53.3982 69.1349 53.3642C69.1988 53.3483 69.2697 53.3257 69.2948 53.3143C69.32 53.3032 69.3816 53.2917 69.4317 53.285C69.5664 53.2715 70.0393 53.2917 70.0689 53.3122ZM94.9492 56.0319H90.5194V54.5024L90.7661 54.4637C91.3118 54.3801 91.6521 54.3235 91.6725 54.31C91.6862 54.3009 91.7981 54.2829 91.9236 54.2671C92.0492 54.2513 92.1635 54.2307 92.1748 54.2216C92.1886 54.2128 92.2958 54.1923 92.4146 54.1765C92.5334 54.1629 92.6885 54.1357 92.7573 54.1177C92.8257 54.1019 92.9696 54.0769 93.0768 54.0635C93.1843 54.0497 93.2915 54.0294 93.3166 54.0203C93.3418 54.0092 93.4558 53.9887 93.5678 53.9728C93.682 53.9593 93.8097 53.939 93.8532 53.9253C93.8964 53.9141 94.0611 53.8824 94.2186 53.8574C94.3762 53.8325 94.5818 53.7988 94.6753 53.7829C94.7689 53.7647 94.8693 53.7512 94.8989 53.7489L94.9492 53.7465V56.0319ZM76.0423 55.8984V57.2538H78.3257V59.2678H76.0401L76.0491 61.3654C76.0561 63.6259 76.0513 63.5149 76.1749 63.7931C76.2685 64.0083 76.5332 64.2277 76.7615 64.282C76.8004 64.2911 76.8439 64.3091 76.8622 64.3228C76.9054 64.3566 77.8303 64.3566 77.8715 64.3205C77.8895 64.307 77.9719 64.2888 78.0586 64.2797L78.2117 64.2639V66.2485L78.1499 66.2755C78.093 66.3004 77.8303 66.3412 77.4696 66.3841C76.9558 66.443 76.0194 66.4498 75.9646 66.3931C75.951 66.382 75.9146 66.3729 75.8802 66.3729C75.7911 66.3729 75.4212 66.3048 75.3937 66.2845C75.38 66.2755 75.3185 66.2528 75.2545 66.2394C75.1929 66.2235 75.1313 66.2029 75.1174 66.1942C75.1061 66.1827 75.0538 66.1625 75.0034 66.1466C74.9531 66.1308 74.9074 66.1102 74.9006 66.1035C74.8938 66.0967 74.8526 66.0718 74.8091 66.0468C74.6196 65.9474 74.5627 65.9113 74.4621 65.8273C74.4029 65.7799 74.348 65.7394 74.3365 65.7394C74.3137 65.737 74.1402 65.5491 74.0033 65.3773C73.8983 65.2437 73.7428 64.9881 73.6903 64.8567C73.672 64.8138 73.6516 64.773 73.6447 64.7662C73.6356 64.7594 73.6128 64.6894 73.5899 64.6078C73.5692 64.5265 73.542 64.4405 73.5304 64.4155C73.5192 64.3906 73.4916 64.2888 73.4736 64.1893C73.4542 64.0948 73.4336 64.0004 73.4117 63.9064C73.3957 63.8387 73.3844 63.0419 73.3776 61.5351L73.3685 59.2678H72.0462V57.2538H73.3708V54.9729L73.526 54.9571C73.6104 54.9482 73.6903 54.9324 73.7018 54.9233C73.7155 54.9142 73.8275 54.894 73.953 54.878C74.0785 54.8623 74.1929 54.8394 74.2042 54.8306C74.2178 54.8215 74.3617 54.7965 74.5239 54.7763C74.6883 54.7533 74.8322 54.7287 74.8435 54.7196C74.8571 54.7105 74.9326 54.6947 75.0146 54.6879C75.122 54.6752 75.2287 54.6578 75.3345 54.636C75.5788 54.5861 76.0058 54.5203 76.0263 54.5318C76.0354 54.5362 76.0423 55.1519 76.0423 55.8984ZM83.612 57.0388C83.9315 57.0569 84.2925 57.0977 84.3198 57.118C84.3334 57.127 84.3882 57.143 84.4454 57.1497C84.5756 57.1702 84.8931 57.2629 85.0847 57.3398C85.2446 57.4033 85.6009 57.5796 85.6556 57.6251C85.674 57.6386 85.7149 57.6656 85.7469 57.6793C85.7788 57.6952 85.8796 57.7741 85.9683 57.8514C86.0575 57.9305 86.1398 57.9984 86.151 58.0027C86.1855 58.0186 86.5917 58.5075 86.5917 58.5345C86.5917 58.5412 86.6125 58.5777 86.6377 58.6114C86.6856 58.6795 86.8887 59.0709 86.8887 59.0959C86.8887 59.1047 86.9071 59.1545 86.932 59.2065C86.9548 59.2587 86.9823 59.338 86.9915 59.3808C87.0006 59.4239 87.0167 59.4692 87.0256 59.4826C87.0347 59.4941 87.0555 59.5663 87.0714 59.6411C87.0851 59.7156 87.1034 59.7929 87.1103 59.8107C87.1194 59.8289 87.1398 59.9261 87.1583 60.0258C87.1855 60.1752 87.1923 60.7386 87.2015 63.2321L87.2106 66.2596H84.7195L84.7172 65.9926C84.7148 65.8479 84.708 65.6375 84.6988 65.5265L84.6852 65.3229L84.6189 65.4133C84.5141 65.5515 84.169 65.8772 84.0322 65.9677C83.7328 66.1625 83.6532 66.2097 83.5708 66.2371C83.5205 66.2506 83.4545 66.2778 83.4225 66.2956C83.3881 66.3116 83.3037 66.3388 83.2351 66.3524C83.1666 66.3681 83.0982 66.3887 83.0867 66.3975C82.9703 66.4835 81.5317 66.4814 81.4197 66.3955C81.4085 66.3864 81.3262 66.3662 81.237 66.3503C81.1503 66.3345 81.0475 66.3095 81.0087 66.2913C80.9724 66.2755 80.874 66.2347 80.7943 66.2029C80.7025 66.1634 80.6125 66.1196 80.5248 66.0718C80.4642 66.0347 80.4024 65.9992 80.3397 65.9656C80.2438 65.9133 80.2118 65.884 79.9516 65.626C79.6844 65.3613 79.6501 65.3253 79.6501 65.3003C79.6501 65.2912 79.6204 65.2414 79.5864 65.1894C79.5496 65.1375 79.4972 65.0424 79.4696 64.9811C79.4424 64.918 79.4057 64.8431 79.3897 64.8114C79.3717 64.7797 79.3465 64.6984 79.3305 64.6304C79.3145 64.5625 79.2941 64.4948 79.2849 64.4834C79.2597 64.4517 79.2162 64.1303 79.2162 63.99C79.2162 63.9247 79.205 63.8589 79.1913 63.8454C79.1638 63.8181 79.1706 63.7277 79.2414 63.1821C79.255 63.0759 79.2757 62.9786 79.2849 62.9674C79.2941 62.9538 79.3145 62.8949 79.3281 62.8339C79.3577 62.7162 79.4197 62.5624 79.4836 62.4468C79.5041 62.4084 79.5313 62.3564 79.5452 62.3291C79.5589 62.2998 79.5772 62.2772 79.5884 62.2772C79.5976 62.2772 79.6044 62.2637 79.6044 62.2478C79.6044 62.2229 79.8556 61.8993 79.8991 61.8699C79.9082 61.8631 79.9243 61.8406 79.9311 61.8179C79.9402 61.793 79.9675 61.7704 79.9927 61.7637C80.0178 61.7569 80.0383 61.7431 80.0383 61.734C80.0383 61.7115 80.422 61.4127 80.5521 61.3381C80.6456 61.2815 80.8559 61.1753 81.1618 61.0303C81.2053 61.0078 81.6321 60.8721 81.8195 60.82C81.8879 60.7997 82.0227 60.7723 82.1163 60.7589C82.2098 60.743 82.299 60.7249 82.3105 60.7161C82.3241 60.7069 82.461 60.6864 82.6188 60.6729C82.7763 60.6593 82.9703 60.6368 83.0526 60.6253C83.3769 60.5778 84.5161 60.5869 84.6373 60.6368C84.6784 60.6547 84.6805 60.6458 84.6645 60.4534C84.6556 60.3425 84.6396 60.2474 84.6304 60.2406C84.6189 60.2338 84.6053 60.191 84.5961 60.1456C84.5801 60.0619 84.4933 59.8788 84.4113 59.7541C84.3586 59.6751 84.1371 59.4486 84.1119 59.4486C84.103 59.4486 84.0642 59.426 84.0252 59.3967C83.9247 59.3242 83.7628 59.252 83.6645 59.2338C83.6165 59.2247 83.5777 59.2089 83.5777 59.1998C83.5777 59.1003 82.1026 59.0844 81.6596 59.1818C81.6025 59.193 81.4701 59.2179 81.3629 59.2361C81.2554 59.254 81.1482 59.2789 81.123 59.2904C81.0978 59.3016 81.0158 59.3221 80.9403 59.3356C80.8651 59.3491 80.7828 59.3696 80.7576 59.3808C80.7324 59.3922 80.6412 59.4172 80.5544 59.4375C80.4677 59.4577 80.3854 59.4803 80.3717 59.4917C80.3581 59.5009 80.2965 59.5234 80.2325 59.5392C80.171 59.5551 80.107 59.5777 80.0955 59.5868C80.0818 59.5959 80.0202 59.6161 79.9583 59.632C79.8946 59.6455 79.8055 59.6772 79.7599 59.6998C79.7119 59.7247 79.6684 59.7429 79.6616 59.7429C79.6548 59.7429 79.6501 59.2699 79.6501 58.693C79.6501 57.876 79.6571 57.6385 79.6799 57.6204C79.6959 57.6068 79.7599 57.5843 79.8215 57.5685C79.8855 57.5549 79.9471 57.5344 79.9583 57.5253C79.9723 57.5162 80.0475 57.4893 80.1298 57.4687C80.2118 57.4461 80.2894 57.4214 80.301 57.4123C80.3146 57.4009 80.3854 57.3827 80.4585 57.3671C80.534 57.3513 80.6116 57.3308 80.6297 57.3196C80.6504 57.3106 80.7439 57.2855 80.8376 57.2653C80.9103 57.2513 80.9827 57.2354 81.0546 57.2178C81.0795 57.2107 81.2074 57.1905 81.3398 57.1723C81.4725 57.1544 81.6117 57.1294 81.6481 57.118C81.7807 57.0774 82.9771 57.0027 83.2466 57.0185C83.3218 57.0229 83.4865 57.0321 83.612 57.0388V57.0388ZM71.0186 66.2596H68.3472V57.2538H71.0186V66.2596ZM91.2043 60.0596C91.2043 62.7388 91.2158 63.257 91.2707 63.3295C91.2819 63.3407 91.2958 63.3858 91.305 63.429C91.337 63.5986 91.4854 63.8454 91.6541 64.0127C91.7433 64.1033 91.8436 64.1825 91.8756 64.1914C91.91 64.1984 91.9351 64.2119 91.9351 64.221C91.9351 64.2298 92.0151 64.2615 92.1131 64.2932C92.2595 64.3387 92.337 64.3475 92.5653 64.3475C92.7253 64.3475 92.8644 64.3363 92.8964 64.3228C92.926 64.3071 92.9968 64.2844 93.0539 64.2685C93.1111 64.2527 93.2139 64.2052 93.2823 64.1597C93.4102 64.0784 93.6477 63.8613 93.6477 63.8248C93.6477 63.8137 93.6797 63.7638 93.7162 63.7163C93.7549 63.6664 93.7848 63.6168 93.7848 63.6033C93.7848 63.5895 93.8053 63.542 93.828 63.4968C93.8532 63.4515 93.8805 63.3747 93.8897 63.3271C93.8965 63.2773 93.9124 63.2277 93.924 63.2163C93.9812 63.1438 93.9904 62.6869 93.9904 60.0325V57.2538H96.6618V66.2597H95.3968C94.4082 66.2597 94.1248 66.2529 94.1113 66.2303C94.102 66.2168 94.0908 66.0017 94.0861 65.7551C94.0816 65.5108 94.0701 65.3094 94.0612 65.3094C94.0521 65.3094 94.0245 65.3365 93.9973 65.3704C93.8693 65.5425 93.6682 65.737 93.3532 65.9949C93.3075 66.031 93.214 66.0809 93.0085 66.1804C92.9148 66.2256 92.8121 66.2778 92.7801 66.2936C92.7481 66.3095 92.6614 66.3344 92.5858 66.3503C92.5106 66.3661 92.4443 66.3863 92.4375 66.3955C92.4147 66.4293 92.0105 66.4633 91.611 66.4633C91.2183 66.4633 90.8985 66.4362 90.8049 66.3975C90.7797 66.3864 90.693 66.3591 90.6107 66.3388C90.5286 66.3186 90.4531 66.2913 90.4395 66.2822C90.4283 66.2731 90.3734 66.2505 90.3208 66.2346C90.2659 66.2211 90.2227 66.2009 90.2227 66.1918C90.2227 66.1827 90.1816 66.1625 90.1312 66.1466C90.0812 66.1308 90.04 66.1102 90.04 66.1012C90.04 66.0924 90.0148 66.0741 89.9852 66.0606C89.7889 65.9723 89.3435 65.5582 89.1563 65.2912C89.042 65.1284 88.8661 64.8023 88.8297 64.6826C88.8161 64.635 88.7886 64.565 88.7726 64.5286C88.7566 64.4901 88.7293 64.4088 88.7154 64.3475C88.7017 64.2844 88.6813 64.2186 88.6698 64.1961C88.6585 64.1755 88.6378 64.0693 88.6242 63.9584C88.6105 63.8498 88.5854 63.7389 88.5717 63.7139C88.551 63.6801 88.5419 62.8723 88.5374 60.4601L88.5306 57.2538H91.2044L91.2043 60.0596Z" fill="#181D27"></path>
<path d="M83.315 62.2569C83.2034 62.2681 83.0891 62.2862 83.0639 62.2975C83.0387 62.3112 82.9567 62.3314 82.8812 62.3473C82.8083 62.3608 82.71 62.3881 82.6644 62.4084C82.3217 62.5554 82.1551 62.6528 82.041 62.7705C81.9314 62.8838 81.8216 63.0942 81.8035 63.2253C81.7988 63.2705 81.7828 63.3295 81.7692 63.3542C81.744 63.4064 81.7532 63.5669 81.7944 63.7773C81.8399 64.0059 82.0227 64.2844 82.1846 64.368C82.4725 64.5151 82.5273 64.5376 82.6873 64.5626C82.9747 64.6054 83.5229 64.5808 83.6416 64.5174C83.6621 64.506 83.7468 64.4675 83.8288 64.4314C83.9111 64.393 84.0183 64.3316 84.0687 64.2932C84.119 64.2548 84.1759 64.2095 84.1966 64.1937C84.3266 64.0966 84.5665 63.7028 84.5984 63.5399C84.6053 63.4991 84.6236 63.4515 84.6373 63.4334C84.6532 63.4131 84.6645 63.2048 84.6692 62.8315L84.6783 62.2613L84.5549 62.2478C84.3881 62.2273 83.5664 62.2343 83.315 62.2569Z" fill="#181D27"></path>
</svg>