<svg width="56" height="56" viewBox="0 0 56 56" fill="none" xmlns="http://www.w3.org/2000/svg">
<path d="M33.6369 38.7179C34.2649 36.5498 35.7499 32.5383 39.2391 25.3237C39.6588 24.4565 40.0797 23.5994 40.4956 22.7631L51.3333 22.5618L51.2181 16.3411L43.7113 16.4804C45.0178 13.9932 45.9129 12.3638 45.93 12.3322L40.4791 9.33353C40.4544 9.37848 38.777 12.4322 36.6336 16.612L22.5086 16.8741C23.9266 14.166 24.9154 12.3657 24.9337 12.3328L19.4822 9.33353C19.4569 9.37974 17.6744 12.6253 15.4354 17.0052L4.66667 17.2052L4.78188 23.4259L12.3185 23.286C6.00738 36.4409 5.63897 40.3251 6.11689 42.3837C6.55177 44.2581 7.76841 45.5805 9.45538 46.0116C9.84658 46.1116 10.2473 46.1629 10.6606 46.1629C12.8635 46.1629 15.4373 44.717 18.9651 41.5519C21.4351 39.3357 23.4784 37.0524 23.5645 36.9568L18.9227 32.8137C16.8704 35.1134 14.4315 37.374 12.6407 38.7172C13.2686 36.5491 14.7537 32.5377 18.2428 25.3231C18.5967 24.5907 18.9518 23.8665 19.3044 23.1556L33.504 22.8923C33.4812 22.9391 33.4584 22.986 33.4363 23.0328C27.0081 36.3921 26.6327 40.3112 27.1138 42.3831C27.5487 44.2575 28.7653 45.5799 30.4523 46.0109C30.8435 46.111 31.2442 46.1622 31.6575 46.1622C33.8604 46.1622 36.4342 44.7164 39.962 41.5513C42.432 39.3351 44.4753 37.0518 44.5614 36.9562L39.9196 32.813C37.8673 35.1128 35.4284 37.3733 33.6376 38.7166L33.6369 38.7179Z" fill="white"></path>
</svg>