<svg width="167" height="112" viewBox="0 0 167 112" fill="none" xmlns="http://www.w3.org/2000/svg">
<path d="M81.8394 46.3333C82.3539 46.3333 82.771 46.7491 82.771 47.262V50.4045C82.771 50.9175 82.3539 51.3333 81.8394 51.3333H68.5568V47.262C68.5568 46.7491 68.9739 46.3333 69.4884 46.3333H81.8394ZM81.8394 61.3333H68.5568V65.4045C68.5568 65.9174 68.9739 66.3333 69.4884 66.3333H81.8394C82.3539 66.3333 82.771 65.9174 82.771 65.4045V62.262C82.771 61.7491 82.3539 61.3333 81.8394 61.3333ZM80.2198 57.9045V54.762C80.2198 54.249 79.8041 53.8333 79.2915 53.8333H68.5568V58.8333H79.2915C79.8041 58.8333 80.2198 58.4174 80.2198 57.9045ZM98.6049 46.3333H86.254C85.7395 46.3333 85.3223 46.7491 85.3223 47.262V51.3333H98.6049C99.1194 51.3333 99.5366 50.9175 99.5366 50.4045V47.262C99.5366 46.7491 99.1195 46.3333 98.6049 46.3333ZM98.6049 61.3333H85.3223V65.4045C85.3223 65.9174 85.7395 66.3333 86.254 66.3333H98.6049C99.1194 66.3333 99.5366 65.9174 99.5366 65.4045V62.262C99.5366 61.7491 99.1195 61.3333 98.6049 61.3333ZM96.9853 57.9045V54.762C96.9853 54.249 96.5697 53.8333 96.0571 53.8333H85.3223V58.8333H96.0571C96.5697 58.8333 96.9853 58.4174 96.9853 57.9045ZM50.3333 65.4045C50.3333 65.9175 50.7561 66.3333 51.2774 66.3333H59.7795C62.8532 66.3333 65.4168 64.1861 66.0055 61.3333H50.3333V65.4045ZM102.088 62.262V65.4044C102.088 65.9174 102.504 66.3333 103.016 66.3333H110.544C113.567 66.3333 116.088 64.186 116.667 61.3333H103.016C102.504 61.3333 102.088 61.7491 102.088 62.262ZM115.741 46.3333H107.825C104.812 46.3333 102.3 48.4806 101.723 51.3333H115.741C116.252 51.3333 116.667 50.9175 116.667 50.4046V47.262C116.667 46.7491 116.252 46.3333 115.741 46.3333ZM59.7795 53.8333H50.3333V58.8333H66.0055C65.4169 55.9805 62.8533 53.8333 59.7795 53.8333ZM110.566 53.834L101.723 53.8333C102.3 56.6857 104.813 58.8325 107.824 58.8325L116.667 58.8333C116.09 55.9808 113.577 53.834 110.566 53.834ZM58.4361 46.3346L51.2769 46.3333C50.7558 46.3331 50.3333 46.749 50.3333 47.2622V51.3333H63.4542C63.4542 48.592 61.2129 46.3671 58.4361 46.3346Z" fill="#181D27"></path>
</svg>