<svg width="167" height="112" viewBox="0 0 167 112" fill="none" xmlns="http://www.w3.org/2000/svg">
<path d="M5.00131 66.0125C5.22258 65.594 5.44909 65.1768 5.66513 64.7556C7.98652 60.2272 10.3066 55.6988 12.628 51.1704C13.5366 49.3985 14.4479 47.6278 15.3526 45.8545C15.4207 45.7202 15.4901 45.6667 15.6472 45.6667C17.1333 45.6733 18.618 45.6707 20.1041 45.6707H20.3057C20.2429 45.7945 20.1918 45.8975 20.1381 45.9992C18.4963 49.2016 16.8557 52.4039 15.2139 55.6063C13.4568 59.0342 11.6971 62.4608 9.9413 65.8913C9.87977 66.0125 9.81037 66.0543 9.6729 66.0543C8.11483 66.0491 6.55807 66.0517 5 66.0517V66.0125H5.00131Z" fill="#181D27"></path>
<path d="M82.6573 55.5321C82.7372 55.4943 82.7568 55.4278 82.7909 55.3757C83.6157 54.1396 84.8046 53.5633 86.2645 53.5046C86.8471 53.4811 87.4284 53.5372 87.994 53.691C89.1305 54.0001 89.9567 54.6663 90.377 55.7851C90.4516 55.7551 90.4608 55.6847 90.4896 55.6299C90.7763 55.0758 91.063 54.5216 91.3419 53.9649C91.393 53.8632 91.4506 53.8266 91.5645 53.8293C92.0293 53.8358 92.4941 53.8266 92.9589 53.8358C93.0899 53.8384 93.12 53.7993 93.1187 53.6741C93.1134 52.5684 93.12 51.4614 93.1108 50.3557C93.1095 50.1875 93.1579 50.1575 93.3164 50.1588C94.3049 50.1666 95.2921 50.1666 96.2806 50.1588C96.443 50.1588 96.4993 50.1836 96.498 50.3648C96.4875 51.4575 96.4953 52.5514 96.4888 53.6441C96.4888 53.7914 96.5189 53.8384 96.6773 53.8371C97.5664 53.828 98.4554 53.8332 99.3457 53.8332C99.3588 53.914 99.3077 53.9636 99.2802 54.0183C98.9621 54.6442 98.6361 55.2661 98.3244 55.8946C98.259 56.0263 98.1843 56.0654 98.0416 56.0628C97.5768 56.0524 97.112 56.0641 96.6472 56.0563C96.5137 56.0537 96.4888 56.0967 96.4888 56.2193C96.4927 58.2494 96.4888 60.2796 96.4927 62.3097C96.4927 62.4649 96.5124 62.6226 96.5425 62.7739C96.6407 63.2524 96.8855 63.4519 97.4158 63.5171C97.874 63.5732 98.331 63.5523 98.784 63.4767C98.928 63.4519 98.9712 63.4741 98.9686 63.6319C98.9595 64.3738 98.9555 65.1157 98.9712 65.8576C98.9752 66.0388 98.9005 66.074 98.7565 66.0884C97.9408 66.1705 97.1251 66.2005 96.3068 66.1496C95.8433 66.121 95.3811 66.0753 94.9333 65.9397C93.7628 65.5877 93.116 64.731 93.1147 63.5106C93.1121 61.0971 93.1121 58.6823 93.1174 56.2688C93.1174 56.1019 93.0846 56.0537 92.9079 56.0563C92.104 56.068 91.2987 56.0615 90.4765 56.0615C90.608 56.5405 90.6944 57.0308 90.7344 57.5258C90.7449 57.6483 90.7554 57.7722 90.7554 57.8961C90.7554 60.5508 90.7554 63.2055 90.7606 65.8602C90.7606 66.0219 90.7226 66.0623 90.559 66.061C89.5574 66.0532 88.5571 66.0532 87.5554 66.061C87.4049 66.061 87.3761 66.0193 87.3761 65.8784C87.3813 63.4845 87.3813 61.0893 87.3774 58.6953C87.3774 58.2038 87.287 57.7266 87.109 57.2663C86.8811 56.6769 86.4582 56.3262 85.8337 56.2101C85.31 56.1137 84.7915 56.1345 84.2809 56.2793C83.4063 56.5257 82.9847 57.1672 82.7883 57.9978C82.6822 58.4489 82.6285 58.9066 82.6285 59.3708C82.6285 61.5313 82.6259 63.6918 82.6325 65.8511C82.6325 66.0219 82.5945 66.0636 82.4217 66.0623C81.4201 66.0532 80.4197 66.0545 79.4181 66.0623C79.2767 66.0623 79.2492 66.0232 79.2492 65.8902C79.2532 60.3787 79.2532 54.8671 79.2492 49.3556C79.2492 49.2135 79.2924 49.1887 79.4247 49.1887C80.4328 49.1939 81.4397 49.1966 82.4479 49.1874C82.6141 49.1861 82.6325 49.2448 82.6325 49.3843C82.6285 51.3623 82.6298 53.3403 82.6311 55.3183C82.6311 55.3874 82.6115 55.4591 82.6547 55.5386L82.6573 55.5321ZM77.9596 59.1608C77.9596 57.4423 77.9569 55.7251 77.9622 54.0066C77.9622 53.8605 77.9268 53.8253 77.7815 53.8266C77.1072 53.8358 76.4329 53.8332 75.7586 53.8266C75.6329 53.8266 75.5622 53.854 75.5046 53.9753C75.337 54.3273 75.155 54.6716 74.973 55.0171C74.8958 55.1644 74.8395 55.3248 74.7308 55.4565C74.6536 55.4057 74.6274 55.3287 74.5868 55.2648C74.0853 54.4721 73.3953 53.9244 72.4801 53.6832C71.4982 53.4237 70.5083 53.412 69.5355 53.7015C67.9146 54.1826 66.8659 55.2883 66.2649 56.823C65.5985 58.5271 65.6207 60.2691 66.0868 62.0137C66.3722 63.0842 66.9064 64.0126 67.8046 64.6932C69.1179 65.6881 70.6065 65.881 72.179 65.5564C73.2356 65.3386 74.1142 64.821 74.6745 63.86C74.6824 63.8457 74.7007 63.8379 74.74 63.8092C74.74 64.2851 74.7374 64.7362 74.74 65.1887C74.74 65.5785 74.7387 65.9671 74.6641 66.3544C74.4441 67.494 73.7619 68.1811 72.6163 68.3649C71.9564 68.4706 71.2991 68.4028 70.6563 68.215C69.9309 68.0012 69.3208 67.6087 68.8206 67.0193C68.4187 67.803 68.0272 68.5723 67.6292 69.3389C67.5703 69.4511 67.6541 69.4759 67.7104 69.5163C68.2262 69.8944 68.7984 70.1617 69.4098 70.3416C70.9836 70.8045 72.5626 70.7406 74.1364 70.3547C75.1747 70.1004 76.0912 69.6206 76.7982 68.8031C77.627 67.8434 77.9452 66.6986 77.9543 65.4638C77.9714 63.3633 77.9596 61.2614 77.9596 59.1595V59.1608ZM74.215 61.8573C73.6205 62.8234 72.7328 63.2368 71.6134 63.1533C70.5502 63.0751 69.8589 62.4623 69.4936 61.517C69.0144 60.2757 68.9843 58.9965 69.4465 57.7409C69.7542 56.9025 70.3303 56.2806 71.2428 56.1019C72.903 55.7773 74.16 56.5244 74.5803 58.2429C74.6981 58.724 74.7492 59.2156 74.7452 59.6563C74.757 60.4725 74.6182 61.2014 74.215 61.8573Z" fill="#181D27"></path>
<path d="M101.23 53.8579C101.984 56.6248 102.732 59.372 103.48 62.1193C103.496 62.1193 103.511 62.1193 103.526 62.118C103.615 61.7608 103.707 61.4035 103.795 61.0462C104.373 58.694 104.953 56.3431 105.529 53.9909C105.558 53.871 105.603 53.8279 105.734 53.8279C106.722 53.8344 107.709 53.8344 108.698 53.8279C108.828 53.8279 108.872 53.8684 108.904 53.9909C109.567 56.6287 110.235 59.2664 110.903 61.9042C110.919 61.9668 110.937 62.0294 110.954 62.0932C111.03 62.0789 111.018 62.0176 111.03 61.9733C111.749 59.3434 112.471 56.7134 113.181 54.0809C113.236 53.8775 113.316 53.824 113.52 53.8266C114.522 53.8384 115.522 53.8358 116.524 53.8279C116.69 53.8279 116.733 53.8462 116.677 54.0222C115.416 57.9808 114.159 61.9407 112.906 65.9019C112.868 66.0218 112.814 66.0571 112.689 66.0557C111.641 66.0492 110.595 66.0479 109.548 66.0571C109.402 66.0571 109.364 66.0036 109.332 65.8823C108.639 63.272 107.943 60.6629 107.245 58.0538C107.228 57.9899 107.234 57.9104 107.149 57.8452C107.038 58.2755 106.93 58.6914 106.824 59.1087C106.247 61.3735 105.668 63.6383 105.093 65.9032C105.065 66.014 105.023 66.0571 104.9 66.0557C103.833 66.0505 102.767 66.0505 101.7 66.0557C101.591 66.0557 101.544 66.0284 101.509 65.9188C100.697 63.3645 99.8798 60.8102 99.0628 58.2572C99.0367 58.1738 99.0301 58.1008 99.0733 58.016C99.7751 56.6521 100.474 55.2883 101.173 53.9231C101.181 53.9075 101.198 53.8957 101.23 53.8605V53.8579ZM30.5916 55.5321C30.6702 55.4904 30.6898 55.4252 30.7252 55.373C31.55 54.137 32.7402 53.5619 34.2 53.5046C34.8285 53.4798 35.4557 53.545 36.0619 53.7288C37.3974 54.1343 38.1869 55.0431 38.4932 56.3809C38.6242 56.952 38.6949 57.531 38.6949 58.1203C38.691 60.6968 38.691 63.2733 38.6975 65.8497C38.6975 66.0271 38.6477 66.0584 38.4828 66.0571C37.4943 66.0492 36.507 66.0466 35.5185 66.0584C35.3352 66.061 35.3116 66.0023 35.313 65.8419C35.3182 63.4545 35.3182 61.0671 35.3143 58.6797C35.3143 58.1816 35.2213 57.6979 35.0354 57.2337C34.8063 56.6626 34.3873 56.3223 33.7785 56.2075C33.2547 56.1084 32.7362 56.1293 32.2256 56.2714C31.351 56.5139 30.9242 57.1528 30.7265 57.9834C30.6178 58.4411 30.5654 58.9053 30.5654 59.3746C30.5654 61.5352 30.5628 63.6944 30.5694 65.8549C30.5694 66.014 30.5366 66.0584 30.369 66.0571C29.3674 66.0479 28.3671 66.0492 27.3655 66.0571C27.2189 66.0571 27.1848 66.0218 27.1848 65.8758C27.1887 60.3721 27.1887 54.8684 27.1848 49.3647C27.1848 49.2213 27.2162 49.1822 27.3642 49.1835C28.3723 49.1913 29.3792 49.1913 30.3874 49.1835C30.5353 49.1835 30.568 49.22 30.568 49.3647C30.5628 51.3492 30.5641 53.3338 30.5654 55.317C30.5654 55.3848 30.5432 55.4578 30.5916 55.5347V55.5321ZM142.79 58.1933C143.731 57.2219 144.638 56.2857 145.546 55.3483C146 54.8802 146.454 54.4121 146.906 53.9414C146.971 53.8736 147.032 53.8266 147.138 53.8279C148.413 53.8318 149.69 53.8305 150.979 53.8305C150.962 53.9127 150.895 53.9479 150.848 53.9922C149.411 55.3861 147.972 56.7812 146.528 58.1699C146.403 58.2898 146.403 58.3641 146.496 58.5024C148.138 60.951 149.775 63.405 151.413 65.8563C151.448 65.9097 151.483 65.9632 151.523 66.0231C151.465 66.0675 151.405 66.0492 151.351 66.0492C150.107 66.0505 148.865 66.0479 147.621 66.0544C147.482 66.0544 147.414 66.0036 147.347 65.8941C146.292 64.1834 145.233 62.4753 144.179 60.762C144.094 60.6225 144.049 60.5951 143.923 60.7242C143.617 61.0358 143.3 61.337 142.977 61.6317C142.842 61.7542 142.784 61.8781 142.786 62.0659C142.795 63.3345 142.788 64.6032 142.794 65.8719C142.794 66.0153 142.763 66.0544 142.614 66.0544C141.606 66.0466 140.599 66.0466 139.591 66.0544C139.443 66.0544 139.41 66.0179 139.41 65.8732C139.414 60.3682 139.414 54.8645 139.41 49.3595C139.41 49.2122 139.448 49.1796 139.592 49.1796C140.6 49.1861 141.607 49.1874 142.615 49.1796C142.769 49.1796 142.794 49.2239 142.794 49.3634C142.79 52.2202 142.791 55.0757 142.791 57.9326V58.1933H142.79ZM51.907 57.1972C51.3859 55.8111 50.4315 54.7928 49.0855 54.1461C48.1192 53.6832 47.0941 53.4954 46.1422 53.5007C45.5229 53.5007 45.0201 53.5319 44.5252 53.6363C42.5102 54.0613 41.0281 55.1566 40.2189 57.0694C39.5983 58.5363 39.5184 60.0657 39.8418 61.6043C40.2726 63.6605 41.4392 65.1509 43.4411 65.9175C44.7229 66.4091 46.0584 66.4743 47.4004 66.2409C49.5582 65.8641 51.1293 64.7114 51.9188 62.6487C52.6101 60.8428 52.5853 59.0057 51.907 57.1972ZM48.6377 62.1493C48.1428 63.315 47.17 63.9004 45.8947 63.8522C44.4925 63.7987 43.7121 62.989 43.373 61.9798C42.9174 60.6277 42.9161 59.2508 43.3769 57.9026C43.7213 56.8894 44.427 56.214 45.5307 56.0641C47.2381 55.8333 48.5042 56.7434 48.8603 58.428C48.9677 58.9326 49.024 59.4411 49.0187 60.1752C49.0056 60.7072 48.9362 61.4478 48.6377 62.1493ZM128.264 57.0511C127.709 55.6729 126.719 54.6911 125.361 54.0783C124.434 53.661 123.456 53.4954 122.544 53.502C121.939 53.502 121.436 53.5319 120.943 53.6363C118.88 54.0744 117.372 55.2035 116.597 57.1815C115.916 58.9157 115.897 60.6942 116.498 62.4505C117.127 64.2903 118.414 65.499 120.291 66.061C121.524 66.43 122.781 66.46 124.035 66.2018C126.097 65.778 127.591 64.6267 128.339 62.6461C129.042 60.7841 129.009 58.9 128.264 57.0511ZM125.075 62.1141C124.59 63.2993 123.602 63.9017 122.315 63.8522C120.918 63.7987 120.128 62.9929 119.785 61.9616C119.34 60.6212 119.343 59.2586 119.788 57.9208C120.098 56.9898 120.724 56.3262 121.719 56.1058C123.473 55.7173 124.899 56.6521 125.275 58.4098C125.385 58.9196 125.445 59.4346 125.439 59.9575C125.432 60.6955 125.356 61.423 125.075 62.1141ZM61.6247 64.3372C61.5199 64.3555 61.5003 64.4259 61.4676 64.478C60.7448 65.6137 59.6594 66.1522 58.3619 66.3204C57.5763 66.4221 56.7907 66.3596 56.0261 66.1561C54.6055 65.7793 53.799 64.8262 53.4965 63.4206C53.364 62.803 53.2978 62.1732 53.2988 61.5417C53.3001 59.0369 53.3014 56.5309 53.2949 54.0261C53.2949 53.8618 53.3368 53.8253 53.4978 53.8266C54.4929 53.8344 55.488 53.8358 56.4817 53.8266C56.652 53.8253 56.6795 53.8749 56.6795 54.0313C56.6742 56.3288 56.6742 58.6249 56.6768 60.9224C56.6768 61.4583 56.7436 61.985 56.9125 62.4974C57.1403 63.1885 57.613 63.594 58.337 63.697C58.8542 63.77 59.3701 63.7453 59.8702 63.5849C60.6597 63.3319 61.0643 62.74 61.2607 61.9785C61.3694 61.556 61.4296 61.1258 61.4283 60.6864C61.4257 58.4671 61.4283 56.2479 61.423 54.03C61.423 53.871 61.4558 53.8266 61.6221 53.8279C62.6237 53.8371 63.6253 53.8358 64.6256 53.8279C64.7735 53.8279 64.8063 53.8644 64.8063 54.0092C64.8024 57.9652 64.8024 61.9224 64.8063 65.8784C64.8063 66.031 64.7618 66.0557 64.6217 66.0557C63.6855 66.0492 62.7494 66.0466 61.8145 66.0571C61.6404 66.0584 61.6155 66.0036 61.6194 65.8497C61.6286 65.3503 61.6234 64.851 61.6234 64.3372H61.6247Z" fill="#181D27"></path>
<path d="M160.055 57.3835C159.564 57.3835 159.073 57.3822 158.582 57.3848C158.493 57.3848 158.436 57.3757 158.427 57.2675C158.356 56.4434 157.845 56.034 157.083 55.858C156.422 55.7054 155.758 55.6911 155.104 55.8697C154.453 56.0484 154.152 56.5399 154.293 57.1306C154.343 57.3418 154.463 57.5061 154.631 57.6417C155.051 57.9768 155.555 58.1163 156.062 58.2441C157.049 58.4931 158.057 58.6548 159.034 58.9456C159.511 59.0864 159.978 59.2455 160.411 59.4945C161.611 60.183 162.124 61.2287 161.975 62.5991C161.784 64.3515 160.773 65.4454 159.151 65.9553C157.244 66.5551 155.305 66.5316 153.404 65.8875C152.219 65.4859 151.334 64.7179 150.865 63.5326C150.699 63.1115 150.634 62.6682 150.6 62.2196C150.59 62.0984 150.624 62.0671 150.746 62.0684C151.715 62.0736 152.684 62.0723 153.652 62.071C153.743 62.071 153.81 62.0684 153.817 62.1962C153.866 63.1193 154.4 63.6709 155.24 63.9538C156.033 64.2211 156.836 64.2146 157.62 63.9043C158.11 63.71 158.483 63.3944 158.586 62.8416C158.674 62.3709 158.523 61.998 158.133 61.7189C157.798 61.4803 157.405 61.3734 157.022 61.2482C156.052 60.9353 155.043 60.7684 154.06 60.5063C153.429 60.3381 152.804 60.1491 152.243 59.8009C151.551 59.372 151.041 58.7969 150.928 57.9755C150.683 56.1761 151.373 54.7067 153.196 53.9895C154.28 53.5632 155.418 53.4771 156.57 53.5097C157.556 53.5371 158.525 53.6701 159.427 54.1004C160.71 54.7145 161.45 55.725 161.632 57.1332C161.665 57.3835 161.663 57.3835 161.41 57.3835H160.055ZM17.462 56.0562C17.4554 55.9806 17.4973 55.9349 17.5235 55.8854C17.8482 55.2491 18.1782 54.6154 18.4976 53.9752C18.5513 53.867 18.6102 53.8252 18.7333 53.8278C19.1915 53.8357 19.6498 53.8252 20.1068 53.8344C20.2429 53.837 20.2809 53.8044 20.2796 53.6649C20.273 52.5592 20.2796 51.4522 20.2717 50.3465C20.2717 50.1939 20.3097 50.1548 20.4629 50.1561C21.4645 50.1639 22.4648 50.1639 23.4664 50.1561C23.6248 50.1561 23.6563 50.2017 23.655 50.3491C23.6484 51.4417 23.6563 52.5357 23.6458 53.6284C23.6445 53.8083 23.6995 53.8357 23.8618 53.8344C24.6801 53.8265 25.4971 53.8305 26.3155 53.8305H26.4988C26.5223 53.8891 26.4883 53.9204 26.4713 53.9517C26.1348 54.6115 25.793 55.2686 25.4592 55.9297C25.4107 56.0249 25.3584 56.0588 25.2523 56.0575C24.7679 56.051 24.2834 56.0575 23.8003 56.0523C23.6825 56.051 23.6471 56.077 23.6471 56.2009C23.651 58.2441 23.6484 60.2873 23.6523 62.3292C23.6523 62.4778 23.6733 62.6278 23.7034 62.7738C23.8042 63.2523 24.0477 63.4492 24.5793 63.5118C25.0376 63.5666 25.4945 63.5483 25.9475 63.4701C26.1047 63.4427 26.1295 63.4857 26.1282 63.6304C26.1204 64.3854 26.1243 65.1403 26.1256 65.894C26.1256 65.98 26.1361 66.0518 26.0091 66.0648C24.7089 66.1991 23.4075 66.2773 22.1296 65.9357C20.912 65.6097 20.2757 64.7335 20.2743 63.4805C20.273 61.0735 20.2717 58.6653 20.2783 56.2583C20.2783 56.0849 20.2351 56.0471 20.0649 56.0484C19.2596 56.0588 18.4557 56.0523 17.6505 56.0523H17.458L17.462 56.0562ZM132.776 56.0992C132.868 56.0523 132.873 55.9819 132.903 55.9271C133.576 54.7119 134.533 53.8526 135.935 53.5775C136.911 53.3858 137.846 53.5201 138.718 54.0234C138.824 54.0847 138.846 54.1317 138.787 54.2451C138.347 55.0925 137.911 55.9422 137.479 56.7942C137.425 56.9011 137.385 56.9233 137.262 56.8737C136.267 56.4773 135.274 56.536 134.316 56.9793C133.656 57.2857 133.352 57.8855 133.174 58.5557C132.992 59.239 132.945 59.9418 132.94 60.6432C132.925 62.38 132.933 64.1168 132.94 65.8536C132.94 66.0165 132.902 66.0557 132.738 66.0544C131.736 66.0465 130.736 66.0465 129.735 66.0544C129.584 66.0544 129.555 66.0139 129.555 65.8718C129.559 61.9171 129.559 57.9612 129.555 54.0065C129.555 53.8591 129.592 53.8265 129.737 53.8265C130.693 53.8331 131.647 53.8344 132.603 53.8265C132.755 53.8265 132.784 53.8683 132.783 54.0104C132.775 54.6988 132.779 55.3886 132.779 56.1005L132.776 56.0992Z" fill="#181D27"></path>
</svg>