<svg width="167" height="112" viewBox="0 0 167 112" fill="none" xmlns="http://www.w3.org/2000/svg">
<path fill-rule="evenodd" clip-rule="evenodd" d="M91.4232 70.853C91.0411 68.836 91.0239 63.0027 91.1409 60.7802C91.1979 59.7188 91.332 58.62 91.3747 57.5834C92.8321 57.5865 93.8674 58.8814 94.3665 59.8277C96.2003 63.3046 95.4474 70.4764 91.4232 70.853ZM95.4303 70.8624C100.906 67.9644 100.769 60.3413 95.4274 57.5896C93.9672 56.8395 92.8863 56.7399 91.1152 56.7399C90.3994 56.7399 86.4807 56.6838 86.1071 56.7866C85.7335 57.6114 87.2593 57.2597 87.2878 59.7997V68.7084C87.2507 71.1768 85.7306 70.7472 86.1071 71.6686C86.6832 71.8367 90.2625 71.7153 91.1665 71.7153C92.9006 71.7153 94.0128 71.6125 95.4303 70.8624Z" fill="#181D27"></path>
<path fill-rule="evenodd" clip-rule="evenodd" d="M87.4128 41.4614C87.3529 44.5928 87.7636 51.3599 86.6542 54.1334C86.4289 54.6999 85.8471 55.0236 86.0439 55.4003C86.2834 55.6835 86.7369 55.5933 87.1618 55.5933C87.8977 55.5933 92.1728 55.6586 92.4095 55.5372C92.8887 55.2913 92.3953 54.8711 92.2555 54.6937C90.9693 53.0595 91.1832 46.7406 91.1832 44.3065C91.1832 43.6186 91.1062 42.0311 91.2031 41.4521C93.017 41.3245 94.2776 42.8061 95.5125 43.9921C95.6523 44.1259 96.063 44.4061 96.2227 44.0979C96.3339 43.8863 95.8519 41.1097 95.792 40.9603C95.5924 40.4622 94.6427 40.621 93.8698 40.621H84.8745C82.3876 40.621 82.8781 40.3657 82.476 42.9369C82.4446 43.133 82.3106 43.7991 82.3334 43.961C82.3876 44.375 82.8239 44.2318 83.0264 44.0481C83.2375 43.8582 83.2118 43.8053 83.594 43.4754C84.635 42.5758 85.8328 41.228 87.4128 41.4614Z" fill="#181D27"></path>
<path fill-rule="evenodd" clip-rule="evenodd" d="M104.194 66.4401C105.817 65.8083 106.562 69.4253 104.83 70.0665C103.935 70.3964 103.324 69.4315 103.202 68.6315C103.062 67.7164 103.393 66.7483 104.194 66.4401ZM105.934 70.356C106.051 70.4774 106.108 70.633 106.219 70.7824C107.152 72.04 108.335 71.7162 109.99 71.7162C110.366 71.7162 111.065 71.875 110.962 71.3427C110.917 71.103 110.646 70.9816 110.32 70.6174C108.934 69.0549 110.517 66.1662 109.04 63.3865C107.491 60.4699 103.504 60.2084 101.696 61.7617C100.467 62.82 100.324 64.7219 102.694 64.4791C103.359 64.4106 104.328 64.0963 104.348 63.4239C104.354 63.2216 103.541 61.1827 104.719 61.743C105.62 62.1726 106.142 64.7624 105.914 66.1351C104.057 63.5702 100.002 64.8838 100.019 68.2549C100.03 70.7451 102.398 72.3201 104.437 71.5046C105.215 71.1933 105.421 70.8851 105.934 70.356Z" fill="#181D27"></path>
<path fill-rule="evenodd" clip-rule="evenodd" d="M96.0062 52.5363C95.6383 50.015 98.265 49.3364 98.6043 51.7456C98.9494 54.1674 96.3484 54.8926 96.0062 52.5363ZM102.512 50.2079C102.512 47.6213 101.334 46.0244 99.7052 45.2058C98.7926 44.7482 97.6575 44.6112 96.5338 44.77C94.6743 45.0346 93.234 46.5318 93.6932 47.6773C94.1581 48.8383 97.6774 48.5053 97.0472 46.8524C96.3684 45.075 97.6774 45.1809 98.2764 46.5941C98.6585 47.4967 98.8154 48.8881 98.7355 50.0056C97.994 49.0718 96.5937 48.2251 94.9766 48.8601C92.1303 49.9776 92.0847 54.2576 95.0023 55.3876C95.7181 55.6646 96.4967 55.6615 97.2154 55.3907C97.8058 55.1697 98.4988 54.6343 98.6814 54.2109L98.8182 54.3417C99.0179 54.5969 98.9666 54.7463 99.5141 55.1728C99.8421 55.428 100.267 55.593 100.786 55.593C101.556 55.5961 103.022 55.6833 103.704 55.537C103.963 54.9673 103.427 54.9891 102.922 54.2296C102.34 53.3518 102.512 51.5589 102.512 50.2079Z" fill="#181D27"></path>
<path fill-rule="evenodd" clip-rule="evenodd" d="M106.667 45.9468C106.31 48.3592 104.534 48.5117 104.16 48.7389C104.953 48.9537 105.304 49.1093 105.823 49.6478C106.47 50.3233 106.49 50.9739 106.661 51.4065C106.784 51.2571 106.801 50.8525 107.015 50.4229C107.306 49.8439 107.699 49.3926 108.238 49.0938C108.504 48.9443 108.877 48.879 109.134 48.7327L108.883 48.63C106.904 47.9981 106.907 46.4044 106.667 45.9468Z" fill="#181D27"></path>
<path fill-rule="evenodd" clip-rule="evenodd" d="M75.5313 58.18C76.8889 57.9465 78.583 57.4018 79.5099 56.7263C81.2838 55.4345 80.0546 54.4851 78.5545 53.9311C76.1788 53.0533 71.9207 52.7389 69.1086 52.7513C65.4609 52.7669 61.5993 52.7825 58.291 53.682C56.999 54.0338 54.5178 54.9894 56.2746 56.5115C57.1673 57.2835 59.158 57.9994 60.5326 58.1768C60.6039 58.843 59.5915 71.5896 59.6884 71.8044C60.4442 72.6355 65.4324 72.6667 66.8698 72.6667L69.8958 72.6573C71.2505 72.6573 75.6882 72.5764 76.3755 71.7982L75.6169 59.8546C75.5941 59.5247 75.4857 58.4663 75.5313 58.18Z" fill="#181D27"></path>
<path fill-rule="evenodd" clip-rule="evenodd" d="M66.9699 40.4453C66.8644 40.7721 66.7532 40.6601 66.8616 41.0741C66.9956 41.5783 66.7247 42.6803 66.6505 43.2219C66.5136 44.2024 66.4167 45.2078 66.3938 46.2381C66.371 47.1719 66.4708 48.6007 66.2512 49.3882C66.1029 49.9298 65.0962 51.2901 65.3386 51.5983C65.4013 51.6792 68.7724 51.5983 69.4141 51.6201L70.4266 51.6605C70.8572 51.6667 70.8087 51.4924 70.6148 51.0068C70.3211 50.2722 69.9703 49.9796 69.8134 49.3913C69.5767 48.5104 69.6908 47.2404 69.6679 46.2381C69.648 45.2701 69.551 44.137 69.4113 43.225C69.3286 42.6865 69.0576 41.5752 69.2002 41.071C69.2972 40.7255 69.1974 40.713 69.0747 40.4453C69.0747 40.4453 69.5139 40.0282 68.9863 39.8134C68.6412 39.6733 66.9699 39.5551 66.8302 40.0313C66.7617 40.2803 66.8929 40.2959 66.9699 40.4453Z" fill="#181D27"></path>
<path fill-rule="evenodd" clip-rule="evenodd" d="M63.185 42.3124C62.9511 42.7918 63.1707 42.8696 63.0937 43.4953C63.0395 43.9342 62.9654 44.2797 62.8998 44.7248C62.7771 45.5341 62.7173 46.4555 62.6859 47.2959C62.6517 48.1519 62.78 49.2321 62.5518 49.9916C62.4235 50.4242 61.6135 51.5075 61.7932 51.8872C61.9387 51.965 63.8609 51.7845 64.1461 51.7254C64.2345 51.5386 64.3458 50.9503 64.4484 50.6701C65.1044 48.8803 65.344 49.9978 65.344 47.3862C65.344 46.4275 65.4095 45.6617 65.2898 44.7217C65.2128 44.1147 64.9932 43.3925 65.0958 42.854C65.1557 42.5428 65.1186 42.5459 64.996 42.3124C65.0131 42.2657 65.3525 41.9296 64.9019 41.7459C64.5796 41.6121 63.6413 41.6214 63.3247 41.7335C62.8171 41.9078 63.1679 42.2626 63.185 42.3124Z" fill="#181D27"></path>
<path fill-rule="evenodd" clip-rule="evenodd" d="M71.0766 42.3137C70.8314 42.7433 71.0567 42.8833 70.9825 43.5028C70.934 43.8856 70.8599 44.2685 70.7943 44.6794C70.6631 45.4949 70.7173 46.5657 70.7315 47.4373C70.7515 48.7228 70.6118 48.8193 71.1736 49.7376C71.3533 50.0333 71.4816 50.2917 71.61 50.6496C71.7355 50.9951 71.8068 51.4216 71.9265 51.7329C72.3002 51.7951 72.728 51.8169 73.1044 51.8418C74.0313 51.9041 74.7529 52.2807 73.9942 50.9204C73.8231 50.6123 73.6406 50.3913 73.518 49.9991C73.2927 49.2613 73.3896 48.1999 73.3754 47.3408C73.3411 45.4451 73.1757 45.0965 72.9818 43.5557C72.9476 43.288 72.9247 43.123 72.9789 42.8553C73.0502 42.4974 73.0017 42.5721 72.882 42.3168C72.8934 42.2826 73.2242 41.9308 72.7907 41.7503C72.5226 41.6382 71.0567 41.5262 70.9626 41.9464C70.8998 42.211 71.0196 42.1269 71.0766 42.3137Z" fill="#181D27"></path>
</svg>