<svg width="167" height="112" viewBox="0 0 167 112" fill="none" xmlns="http://www.w3.org/2000/svg">
<path fill-rule="evenodd" clip-rule="evenodd" d="M83.2344 59.8968V51.5023H81.0668V47.6262H83.2344V43.75H88.4584V47.6262H91.4173V51.5023H88.4584V58.754C88.4584 60.0619 89.158 60.3917 90.2705 60.3917C90.5416 60.3917 90.8357 60.3787 91.0676 60.3685C91.2184 60.3618 91.3427 60.3564 91.4173 60.3564V64.2502C90.9701 64.3798 89.9837 64.5093 88.5846 64.5093C85.5626 64.5093 83.2344 63.4962 83.2344 59.8968ZM93.4712 47.5678H98.4314V50.1833H98.529C99.6759 48.1863 101.012 47.3027 102.985 47.3027C103.461 47.3027 103.782 47.338 104.005 47.4323V52.0095H103.879C100.697 51.55 98.6609 53.1524 98.6609 56.787V64.3097H93.4712V47.5678ZM106.545 63.8853L103.391 66.4713C104.693 68.8925 106.51 70 109.28 70C113.478 70 115.072 66.8306 116.247 63.8853L121.667 47.5675H116.488L113.392 56.8986L110.112 47.5675H104.647L110.364 63.031L110.238 63.4257C109.888 64.5685 109.349 65.1577 108.426 65.1577C107.629 65.1577 107.084 64.7335 106.545 63.8853Z" fill="#181D27"></path>
<path d="M70.5974 42.6722C71.9178 41.9382 73.2901 43.5516 72.3627 44.7477L53.2049 69.4566C52.2963 70.6285 50.437 69.7489 50.7571 68.2986L53.1557 57.4318C53.2373 57.0622 53.1657 56.6751 52.9573 56.3596L44.9071 44.1728C44.1025 42.9548 45.4697 41.4726 46.7395 42.1863L58.3645 48.7196C58.7832 48.9549 59.2931 48.9561 59.7128 48.7228L70.5974 42.6722Z" fill="#181D27"></path>
</svg>