<svg width="167" height="112" viewBox="0 0 167 112" fill="none" xmlns="http://www.w3.org/2000/svg">
<g clip-path="url(#clip0_8172_1174)">
<path d="M69.6526 62.3575V69.2365H72.6081V63.1562C72.6081 62.109 72.4918 61.1683 72.2617 60.3341C72.0317 59.4999 71.6625 58.7925 71.1569 58.2093C70.6512 57.6262 69.9964 57.1748 69.1925 56.8553C68.3885 56.5384 67.4101 56.3787 66.2648 56.3787C65.1852 56.3787 64.2397 56.546 63.4256 56.8807C62.6115 57.2154 61.9314 57.6997 61.3828 58.3361C60.8873 57.7352 60.235 57.2763 59.431 56.9568C58.627 56.6398 57.641 56.4801 56.4755 56.4801C54.4024 56.4801 52.8147 57.0861 51.7098 58.2956C50.605 59.5076 50.0538 61.1607 50.0538 63.2551V69.234H53.0093V62.4564C53.0093 61.5969 53.0953 60.8768 53.2672 60.291C53.4391 59.7079 53.6818 59.2439 54.0004 58.899C54.3164 58.5567 54.6982 58.3158 55.1431 58.1764C55.5881 58.0395 56.0761 57.9786 56.607 57.9964C57.1379 57.9786 57.6056 58.0445 58.0076 58.1891C58.4096 58.3361 58.7484 58.5795 59.0214 58.9244C59.2945 59.2692 59.5043 59.7231 59.651 60.291C59.7976 60.859 59.8684 61.5614 59.8684 62.4032V69.2314H62.8239V63.5366C62.8239 63.0903 62.8188 62.7987 62.8112 62.6618C62.8037 62.5249 62.7986 62.4209 62.7986 62.3525C62.7986 61.4929 62.8846 60.7728 63.0565 60.1871C63.2284 59.6039 63.4711 59.1399 63.7897 58.7951C64.1057 58.4528 64.4874 58.2119 64.9324 58.0724C65.3774 57.9355 65.8653 57.8746 66.3963 57.8924C66.9272 57.8746 67.3974 57.9406 67.8095 58.0851C68.2216 58.2322 68.5629 58.4756 68.836 58.8204C69.109 59.1627 69.3163 59.6242 69.4529 60.1998C69.5894 60.7753 69.6577 61.4929 69.6577 62.3525" fill="black"></path>
<path d="M90.6065 62.4591V69.2367H93.562V63.2578C93.562 62.2106 93.4457 61.2699 93.2156 60.4357C92.9855 59.6015 92.6164 58.8941 92.1108 58.3109C91.6051 57.7277 90.9503 57.2764 90.1464 56.9569C89.3424 56.64 88.364 56.4802 87.2187 56.4802C85.1455 56.4802 83.5578 57.0862 82.453 58.2957C81.3482 59.5077 80.797 61.1609 80.797 63.2553V69.2341H83.7525V62.4566C83.7525 61.597 83.8384 60.8769 84.0104 60.2912C84.1823 59.708 84.425 59.244 84.7436 58.8992C85.0596 58.5569 85.4413 58.316 85.8863 58.1765C86.3313 58.0396 86.8192 57.9787 87.3501 57.9965C87.8811 57.9787 88.3513 58.0447 88.7634 58.1892C89.1755 58.3363 89.5168 58.5797 89.7924 58.9245C90.0655 59.2693 90.2728 59.7283 90.4093 60.3039C90.5458 60.8794 90.6141 61.597 90.6141 62.4566" fill="black"></path>
<path d="M104.527 62.383V63.2857C104.527 64.1452 104.441 64.8628 104.269 65.4384C104.097 66.0139 103.854 66.4729 103.536 66.8177C103.22 67.1625 102.838 67.406 102.393 67.553C101.948 67.7001 101.46 67.7635 100.929 67.7457C100.398 67.7635 99.9103 67.7026 99.4654 67.5657C99.0204 67.4288 98.6386 67.1879 98.3226 66.8431C98.0066 66.4982 97.7613 66.0367 97.5894 65.451C97.4175 64.8679 97.3315 64.1452 97.3315 63.2857V62.383C97.3315 61.5234 97.4175 60.7932 97.5894 60.1923C97.7613 59.5913 98.004 59.1045 98.3226 58.7369C98.6386 58.3667 99.0204 58.1055 99.4654 57.9508C99.9103 57.7962 100.398 57.7277 100.929 57.7454C101.46 57.7277 101.948 57.8012 102.393 57.9635C102.838 58.1258 103.22 58.392 103.536 58.7622C103.852 59.1324 104.097 59.6116 104.269 60.2049C104.441 60.7983 104.527 61.5234 104.527 62.383ZM107.482 62.8217V49.9131H104.527L104.476 57.1268C103.978 56.8859 103.435 56.6754 102.846 56.4954C102.254 56.3154 101.574 56.2241 100.803 56.2241C99.6727 56.2241 98.7119 56.3839 97.9257 56.7008C97.1369 57.0177 96.4871 57.464 95.9739 58.0396C95.4607 58.6151 95.0738 59.3074 94.8185 60.1137C94.5606 60.92 94.4165 61.8226 94.3811 62.8191C94.4165 63.8156 94.5606 64.7081 94.8185 65.4992C95.0764 66.2903 95.4607 66.9648 95.9739 67.5226C96.4871 68.0804 97.1394 68.5115 97.9257 68.8107C98.7145 69.1124 99.6727 69.262 100.803 69.262C101.933 69.262 102.99 69.1124 103.821 68.8107C104.653 68.5089 105.333 68.0804 105.864 67.5226C106.395 66.9648 106.79 66.2903 107.045 65.4992C107.303 64.7081 107.447 63.8156 107.482 62.8191V62.8217Z" fill="black"></path>
<path d="M112.324 68.1284C111.502 68.1639 110.787 68.1107 110.178 67.9737C109.568 67.8368 108.949 67.5452 108.314 67.0964L108.544 68.8485C109.247 69.0539 109.935 69.201 110.612 69.2872C111.29 69.3734 111.952 69.4241 112.605 69.4418C113.186 69.4418 113.778 69.3683 114.377 69.2238C114.976 69.0767 115.517 68.8511 115.995 68.5417C116.475 68.2324 116.865 67.8343 117.163 67.3424C117.464 66.853 117.613 66.2724 117.613 65.603C117.613 65.0021 117.494 64.4899 117.254 64.069C117.014 63.6481 116.703 63.288 116.316 62.9863C115.932 62.6846 115.497 62.4285 115.019 62.2129C114.539 61.9974 114.061 61.7971 113.58 61.6069C113.204 61.4523 112.84 61.3027 112.488 61.1556C112.137 61.0085 111.823 60.8412 111.55 60.6536C111.277 60.4634 111.057 60.258 110.896 60.0349C110.734 59.8118 110.65 59.5455 110.65 59.2362C110.65 58.9446 110.726 58.691 110.883 58.4755C111.037 58.26 111.234 58.08 111.474 57.9354C111.715 57.7884 111.993 57.6768 112.309 57.6007C112.625 57.5247 112.946 57.4841 113.272 57.4841C113.838 57.5348 114.326 57.6084 114.736 57.7022C115.148 57.796 115.507 57.9126 115.815 58.0495C116.124 58.1865 116.394 58.3335 116.624 58.4882C116.855 58.6429 117.074 58.7975 117.279 58.9522C117.279 58.6936 117.284 58.44 117.292 58.1915C117.3 57.943 117.279 57.6464 117.229 57.3015C116.887 57.0962 116.569 56.9187 116.278 56.7742C115.987 56.6271 115.679 56.513 115.353 56.4268C115.027 56.3406 114.675 56.2797 114.299 56.2468C113.922 56.2113 113.495 56.196 113.014 56.196C112.397 56.196 111.806 56.2721 111.242 56.4268C110.676 56.5814 110.175 56.8097 109.74 57.1088C109.303 57.4106 108.956 57.7757 108.698 58.2042C108.441 58.6327 108.314 59.1145 108.314 59.6469C108.314 60.2834 108.433 60.8184 108.673 61.257C108.913 61.6957 109.224 62.0633 109.611 62.3651C109.995 62.6668 110.428 62.9178 110.908 63.1257C111.389 63.3311 111.876 63.5213 112.372 63.6937C112.749 63.8306 113.108 63.9676 113.452 64.107C113.793 64.2439 114.099 64.4037 114.364 64.5837C114.63 64.7637 114.845 64.9691 115.006 65.2024C115.168 65.4331 115.252 65.7044 115.252 66.0138C115.252 66.3586 115.176 66.6578 115.022 66.9164C114.867 67.175 114.652 67.3931 114.379 67.5731C114.106 67.7532 113.793 67.8901 113.441 67.9864C113.09 68.0802 112.718 68.1284 112.324 68.1284Z" fill="black"></path>
<path fill-rule="evenodd" clip-rule="evenodd" d="M79.9576 52.1292V69.2367H78.514V55.1415H75.0149V69.2367H73.4398V60.276C73.4398 60.0351 73.4322 59.8044 73.4146 59.5787V52.1292C73.9202 53.4477 75.1969 54.3884 76.6861 54.3884C78.1752 54.3884 79.4519 53.4477 79.9576 52.1292ZM76.6987 45.3162C77.8364 45.3162 78.9311 45.4886 79.9576 45.8081V49.619C79.4519 48.3005 78.1752 47.3624 76.6861 47.3624C75.1969 47.3624 73.9202 48.3005 73.4146 49.619V45.8157C74.4486 45.4911 75.5509 45.3162 76.6987 45.3162Z" fill="black"></path>
</g>
<defs>
<clipPath id="clip0_8172_1174">
<rect width="90.3333" height="49.6667" fill="white" transform="translate(38.6666 34.6667)"></rect>
</clipPath>
</defs>
</svg>