<svg width="167" height="112" viewBox="0 0 167 112" fill="none" xmlns="http://www.w3.org/2000/svg">
<path d="M25.926 59.9846C25.2223 59.7323 24.5151 59.55 23.8142 59.4298C24.0262 60.5654 24.4177 61.687 25.007 62.7534C26.728 65.8683 29.7298 67.8242 32.9925 68.3333C32.8737 64.921 30.1095 61.4849 25.926 59.9846ZM26.3244 56.5241C31.847 56.0422 36.0977 51.7376 36.61 46.5035C34.204 46.0775 31.6423 46.4401 29.3374 47.7146C25.9881 49.5665 23.9765 52.9001 23.6668 56.4471C24.5285 56.5719 25.4181 56.6031 26.3244 56.5241ZM34.7003 59.9538C34.5591 63.0265 35.5283 65.8924 37.252 68.1651C38.2041 67.9378 39.1421 67.5824 40.0405 67.0856C45.3878 64.1291 47.3265 57.3959 44.3709 52.0468C43.7342 50.8944 42.9216 49.9014 41.9861 49.0803C37.8648 51.0045 34.9237 55.0939 34.7003 59.9538Z" fill="#181D27"></path>
<path d="M25.926 59.9846C25.2223 59.7323 24.5151 59.55 23.8142 59.4298C24.0262 60.5654 24.4177 61.687 25.007 62.7534C26.728 65.8683 29.7298 67.8242 32.9925 68.3333C32.8737 64.921 30.1095 61.4849 25.926 59.9846ZM26.3244 56.5241C31.847 56.0422 36.0977 51.7376 36.61 46.5035C34.204 46.0775 31.6423 46.4401 29.3374 47.7146C25.9881 49.5665 23.9765 52.9001 23.6668 56.4471C24.5285 56.5719 25.4181 56.6031 26.3244 56.5241ZM34.7003 59.9538C34.5591 63.0265 35.5283 65.8924 37.252 68.1651C38.2041 67.9378 39.1421 67.5824 40.0405 67.0856C45.3878 64.1291 47.3265 57.3959 44.3709 52.0468C43.7342 50.8944 42.9216 49.9014 41.9861 49.0803C37.8648 51.0045 34.9237 55.0939 34.7003 59.9538Z" fill="url(#paint0_linear_8166_933)"></path>
<path d="M82.2503 66.3771H85.4398V47.9399H82.2503V66.3771Z" fill="#181D27"></path>
<path d="M95.0646 52.9918C93.4771 52.9918 91.9578 53.5913 90.9772 55.1907V53.2721H88.1059V66.3772H91.1767V59.4356C91.1767 58.8926 91.2249 58.373 91.3211 57.9926C91.6743 56.5791 92.6809 55.7582 94.163 55.7582C95.694 55.7582 96.5764 56.5249 96.8601 58.0577C96.9283 58.4243 96.9612 58.9468 96.9612 59.4331V66.3772H100.033V58.6223C100.033 57.7521 99.9457 56.9656 99.7429 56.2943C99.0767 54.0671 97.2971 52.9918 95.0646 52.9918Z" fill="#181D27"></path>
<path d="M110.292 63.3754C109.959 63.454 109.403 63.4832 109.044 63.4832H105.513V58.2847H109.311C109.652 58.2847 110.041 58.3189 110.316 58.3806C111.809 58.7119 112.381 59.8902 112.381 60.8803C112.381 62.1899 111.54 63.0815 110.292 63.3754ZM105.513 50.8341H108.345C108.991 50.8341 109.677 50.9232 110.118 51.1265C110.886 51.4807 111.301 52.1427 111.301 53.1377C111.301 54.1374 110.859 54.8208 110.076 55.1728C109.684 55.3489 109.112 55.442 108.45 55.442H105.513V50.8341ZM112.685 56.5231C113.932 55.5653 114.456 54.4666 114.456 52.8971C114.456 50.5481 113.001 48.7865 110.783 48.1865C110.208 48.0314 109.272 47.9403 108.183 47.9403H102.358V66.3771H108.883C110.155 66.3771 111.007 66.256 111.842 65.9613C114.029 65.1892 115.537 63.4909 115.537 60.999C115.537 58.9184 114.548 57.4367 112.685 56.5231Z" fill="#181D27"></path>
<path d="M139.706 53.2719L136.426 62.6341L133.097 53.2719H129.77L134.973 66.3771H137.807L143 53.2719H139.706Z" fill="#181D27"></path>
<path d="M119.722 58.7938C119.942 56.9078 121.471 55.6679 123.328 55.6679C125.28 55.6679 126.764 56.9602 126.982 58.7938H119.722ZM123.3 52.992C119.571 52.992 116.674 55.9939 116.674 59.9165C116.674 63.5372 119.527 66.6572 123.431 66.6572C126.283 66.6572 128.491 65.0159 129.62 62.3571H126.496C125.792 63.4098 124.85 63.9811 123.483 63.9811C121.448 63.9811 120.116 62.7834 119.712 60.9407H129.936C130.013 60.5047 130.035 60.1391 130.029 59.6961C129.996 56.1737 127.296 52.992 123.3 52.992Z" fill="#181D27"></path>
<path d="M74.1575 63.4809H70.3616V58.1815C70.8428 58.1612 71.3149 58.1504 71.7713 58.1558C75.2231 58.2005 77.2315 59.2056 77.2316 60.9942C77.2316 62.6039 75.7928 63.4809 74.1575 63.4809ZM70.3616 50.8341H73.0687C73.6871 50.8341 74.2054 50.9045 74.5606 51.0203C75.5889 51.3557 76.1497 52.1305 76.1497 53.38C76.1497 54.5367 75.5676 55.2969 74.6437 55.6465C73.7642 55.497 72.7809 55.415 71.684 55.414C71.2726 55.4137 70.82 55.4202 70.3616 55.4346V50.8341ZM53.273 62.1896L57.3679 51.5863L59.75 57.9435C57.2856 59.0741 55.0885 60.5249 53.273 62.1896ZM77.5066 56.5489C78.8351 55.5768 79.3051 54.1229 79.3051 52.8971C79.3051 50.5481 77.8497 48.7865 75.6322 48.1863C75.0565 48.0314 74.1215 47.9403 73.0323 47.9403H67.2064V55.7198C65.5801 55.9662 64.007 56.351 62.5053 56.8534L58.8687 47.9397H55.942L48.4201 66.3771H51.4892C54.1412 63.5722 57.3074 61.5594 60.6047 60.2241L62.9104 66.3771H66.3907L63.4777 59.2368C64.7245 58.8817 65.9734 58.6176 67.2064 58.4378V66.3771L68.7901 66.3786L68.7896 66.3816H74.3513C78.2815 66.3816 80.3898 64.0752 80.3898 61.0001C80.3898 59.1352 79.4666 57.55 77.5066 56.5489Z" fill="#181D27"></path>
<defs>
<linearGradient id="paint0_linear_8166_933" x1="23.6668" y1="57.3333" x2="45.7536" y2="57.3333" gradientUnits="userSpaceOnUse">
<stop stop-color="#5C5C5C"></stop>
<stop offset="1"></stop>
</linearGradient>
</defs>
</svg>