<svg width="181" height="112" viewBox="0 0 181 112" fill="none" xmlns="http://www.w3.org/2000/svg">
<path fill-rule="evenodd" clip-rule="evenodd" d="M91.5877 53.1902C92.0745 53.1965 92.4394 53.4912 92.5388 53.9608C92.6444 54.4566 92.4197 54.9707 92.0154 55.157C91.2567 55.4541 91.1092 55.6216 90.7947 56.5379C90.3568 57.7871 89.9201 59.0493 89.4822 60.3152L88.989 61.7371C88.6128 62.8273 87.8231 65.1251 86.6443 68.5662C86.5869 68.7365 86.5535 68.8326 86.5525 68.8358C85.5754 71.7108 84.015 72.1404 83.1716 72.1404C82.3283 72.1404 81.7448 71.7125 81.4929 70.9676C81.2278 70.1832 81.4514 69.2399 82.0007 68.8182C82.2682 68.6131 82.8475 68.3568 83.7127 68.9383C83.9739 69.1151 84.1771 69.1761 84.3318 69.1238C84.521 69.0611 84.6895 68.8176 84.8337 68.4012C84.9843 67.9857 85.3974 66.8277 85.4168 66.7654C85.609 66.1952 85.5891 65.8692 85.3142 65.1033C85.1126 64.5489 84.9183 64.012 84.7302 63.49C83.8618 61.0921 83.1111 59.0216 82.2166 56.7283C81.8185 55.6887 81.6305 55.4372 81.033 55.1443C80.5493 54.8912 80.435 54.3393 80.531 53.9334C80.6386 53.4826 80.978 53.1976 81.4158 53.1912H85.53C85.8801 53.1912 86.1799 53.4089 86.2927 53.7469C86.3992 54.0669 86.2963 54.4017 86.032 54.6004C86.0069 54.6192 85.9819 54.6354 85.9568 54.6522C85.9339 54.6657 85.9068 54.6804 85.8787 54.6971C85.4878 54.9262 84.7595 55.3507 84.7595 57.0184C84.7595 59.5325 86.0104 60.9041 86.6531 60.9041C87.2959 60.9038 88.5466 59.5322 88.5466 57.0184C88.5466 55.3512 87.8175 54.9252 87.4265 54.6971C87.3983 54.6803 87.3714 54.6649 87.3484 54.6502C87.3214 54.6336 87.2951 54.6182 87.2712 54.5984C87.0091 54.4028 86.907 54.0679 87.0125 53.7479C87.1264 53.4089 87.424 53.1912 87.7752 53.1912H91.4285V53.1883L91.5877 53.1902ZM107.682 53.0174C108.025 52.824 108.313 52.779 108.539 52.8846C108.756 52.9861 108.901 53.2183 108.967 53.575C109.018 53.8376 109.131 54.0188 109.277 54.0711C109.443 54.1294 109.631 54.0138 109.76 53.9051C110.589 53.1915 111.403 52.8436 112.243 52.8436V52.8455C114.499 52.8457 116.926 54.9543 116.927 59.5848C116.927 61.7431 116.389 63.5585 115.372 64.8328C114.403 66.0453 113.016 66.7136 111.468 66.7137C110.822 66.7137 110.348 66.5631 109.7 66.2869C109.577 66.2378 109.407 66.1914 109.321 66.2498C109.26 66.2917 109.187 66.4232 109.187 66.8113V67.4744C109.187 69.3912 109.222 69.4793 110.129 69.8172C110.626 70.0192 110.775 70.526 110.703 70.9402C110.633 71.3471 110.328 71.7659 109.806 71.7879C109.213 71.7973 108.542 71.8016 107.871 71.8016C107.2 71.8016 106.525 71.7973 105.918 71.7879C105.504 71.7679 105.163 71.4598 105.065 71.0184C104.96 70.5414 105.16 70.0916 105.577 69.8719L105.618 69.8543C106.435 69.4829 106.573 69.3358 106.591 67.2234C106.61 63.7447 106.61 61.6968 106.591 58.4598C106.591 56.849 106.373 56.6178 105.543 55.9881C105.26 55.7579 105.111 55.4308 105.132 55.0887C105.154 54.7362 105.356 54.4065 105.673 54.2088C106.49 53.7047 107.091 53.349 107.682 53.0174ZM100.355 48.0018C101.427 48.0018 102.494 48.2276 103.207 48.6053C103.946 49.0029 104.218 49.4849 104.213 50.3836C104.203 51.004 104.192 52.1462 104.192 53.1902C104.189 53.9382 103.767 54.3153 103.35 54.3572C102.956 54.3959 102.496 54.1397 102.36 53.4764C101.809 50.6965 101.096 50.1531 100.048 50.1531C98.849 50.1532 98.1346 50.9589 98.1345 52.3084C98.1345 53.7323 98.8928 54.7633 100.84 55.9842V55.9852C104.064 58.0001 104.726 59.6772 104.726 61.576C104.726 64.6991 102.751 66.7176 99.6931 66.7176C98.0735 66.7175 96.7414 66.1836 96.0935 65.7254C95.3244 65.1741 95.1815 64.8564 95.1961 63.7215V63.6531C95.2065 62.9826 95.2203 62.063 95.2234 61.1268C95.2349 60.4019 95.6874 60.0429 96.1033 60.0145C96.4993 59.9862 96.9424 60.2559 97.0418 60.9149C97.5392 64.2357 98.8724 64.6199 99.8318 64.6199C101.128 64.6197 102 63.7562 102 62.4705C102 61.1096 101.208 60.0843 99.1765 58.8133C96.5011 57.1456 95.3591 55.4148 95.3591 53.0262C95.3592 49.9273 97.2734 48.0018 100.355 48.0018ZM76.4011 52.8358C77.4796 52.8358 78.4989 53.267 79.2722 54.0506C80.2261 55.0172 80.7402 56.4316 80.7205 58.032C80.7205 58.6274 80.5172 59.3406 79.5515 59.3406H74.5095C74.3402 59.3406 74.2154 59.3861 74.1287 59.4803C74.0033 59.6174 73.952 59.8681 73.9802 60.2049C74.1611 62.6404 75.232 64.0936 76.8445 64.0936C77.7494 64.0934 78.5416 63.6462 79.2 62.7664C79.4821 62.4089 79.8704 62.3028 80.1921 62.493C80.5244 62.6886 80.73 63.202 80.4773 63.8035C79.3465 66.4307 77.1395 66.7147 76.2439 66.7147C74.735 66.7145 73.4464 66.0728 72.5164 64.8582C71.5759 63.6289 71.0789 61.8281 71.0789 59.8455C71.0789 57.8629 71.6514 56.0569 72.6912 54.7596C73.6714 53.5366 75.0238 52.8358 76.4011 52.8358ZM123.083 52.8426C126.213 52.8428 128.484 55.7597 128.484 59.7772C128.484 61.6981 127.936 63.4562 126.94 64.7274C125.937 66.0069 124.547 66.7117 123.026 66.7117C119.885 66.7117 117.605 63.8054 117.606 59.8016V59.7352C117.618 57.8312 118.169 56.0915 119.16 54.8309C120.167 53.5492 121.561 52.8426 123.083 52.8426ZM134.617 52.8426C137.747 52.8426 140.019 55.7595 140.019 59.7772C140.019 61.6979 139.47 63.4552 138.474 64.7264C137.471 66.0058 136.082 66.7116 134.561 66.7117C131.42 66.7117 129.14 63.8053 129.14 59.8016V59.7381C129.152 57.834 129.702 56.0916 130.694 54.8299C131.701 53.5485 133.095 52.8427 134.616 52.8426H134.617ZM51.6599 52.8426C52.4844 52.8426 53.2559 53.1623 53.8328 53.744C54.5747 54.4909 54.9603 55.6159 54.9509 56.9979C54.9321 59.3258 54.9353 60.7366 54.9509 63.0164C54.951 63.4139 55.0483 63.6922 55.2166 63.7801C55.3367 63.8437 55.5095 63.8115 55.7058 63.6902V63.6736L55.7947 63.6307C56.0538 63.5073 56.3436 63.5513 56.5515 63.7469C56.7783 63.9603 56.9356 64.4039 56.6921 65.0086C56.3786 65.7922 55.6077 66.7088 54.4666 66.7088C53.7478 66.7086 53.1498 66.3476 52.6912 65.6375C52.594 65.4942 52.5124 65.4204 52.4392 65.41C52.3514 65.3987 52.224 65.463 52.0486 65.6082C51.2545 66.3038 50.574 66.7088 49.4539 66.7088C47.7202 66.7088 46.6844 65.5859 46.6843 63.7488C46.6843 61.9116 47.7072 61.0541 49.4744 60.1951C49.8692 60.0027 50.1862 59.8485 50.4568 59.7156C50.9812 59.4584 51.3284 59.2876 51.741 59.1004C52.1935 58.8953 52.3543 58.5936 52.3543 57.9481V57.0145C52.3542 56.2825 52.1931 55.7521 51.8777 55.4393C51.6353 55.1987 51.285 55.0776 50.8484 55.0838C50.4022 55.0974 49.6427 55.2446 49.6228 56.0711C49.6228 56.2196 49.6292 56.3629 49.6355 56.5281C49.6397 56.6295 49.644 56.7405 49.6482 56.867C49.6534 57.73 49.3421 58.4062 48.7957 58.7254C48.3954 58.9587 47.9246 58.9649 47.5369 58.742C47.0939 58.4867 46.8396 57.98 46.8396 57.3514C46.8399 55.2862 49.4529 52.8426 51.6599 52.8426ZM44.239 48.3133C44.6893 48.3133 45.0371 48.608 45.1521 49.0828C45.2566 49.517 45.1401 50.1017 44.6384 50.3602C43.6889 50.7974 43.5777 51.1172 43.6404 52.1609C43.8149 55.2808 44.0031 58.0191 44.2498 61.4256C44.417 63.8006 44.5832 63.9331 45.5593 64.3191L45.575 64.326H45.5769C46.0817 64.552 46.2158 65.0976 46.1228 65.535C46.0182 66.0222 45.6639 66.3492 45.241 66.3494C43.7214 66.3254 42.474 66.3369 41.1541 66.3494H41.0593C40.5766 66.3431 40.2044 66.0128 40.1082 65.5076C40.0214 65.0494 40.1912 64.48 40.6824 64.2791C41.6382 63.9413 41.7228 63.8519 41.5964 61.827C41.4846 60.0673 41.376 58.5667 41.2234 56.6502C41.2015 56.3941 41.0949 56.2664 40.9988 56.2537C40.9068 56.2412 40.7794 56.3307 40.7 56.5545C40.0855 58.3467 39.5441 59.9375 39.0466 61.4149C38.568 62.8262 38.0751 64.2963 37.5808 65.784C37.401 66.3131 37.0293 66.6395 36.6072 66.6395H36.5955C36.1734 66.633 35.8102 66.3013 35.6482 65.7742C34.6554 62.5298 33.7453 59.5752 32.6658 56.2732C32.5999 56.0766 32.4949 55.9963 32.4207 56.0057C32.3308 56.0162 32.2212 56.1527 32.1961 56.4275C32.0403 58.2824 31.9135 60.0059 31.7996 61.8514C31.6763 63.8945 31.7425 63.9659 32.6472 64.2713C33.1823 64.4858 33.3606 65.084 33.2644 65.5643C33.1651 66.063 32.8085 66.3788 32.3552 66.3748C31.514 66.3361 30.4703 66.3514 29.5496 66.365C29.3176 66.3692 29.092 66.3727 28.8757 66.3748C28.4755 66.3748 28.1366 66.0566 28.031 65.5848C27.9307 65.1402 28.0584 64.5832 28.5662 64.3426C29.6175 63.9147 29.7596 63.7245 29.9226 61.4051C30.0658 59.5271 30.2063 57.4973 30.3484 55.409L30.5418 52.5281C30.6305 51.0137 30.4118 50.7376 29.5144 50.3035C29.1131 50.0765 28.9212 49.5339 29.0613 49.0369C29.1909 48.5747 29.5738 48.2956 30.0554 48.3143C30.2738 48.3205 30.4693 48.3265 30.6511 48.3328C31.1192 48.3485 31.4893 48.3611 31.949 48.3611C32.6889 48.3611 33.0986 48.6839 33.3191 49.4383C34.2439 52.6271 35.2716 55.7959 36.2644 58.8602L36.7068 60.2254C36.8342 60.6153 36.9832 60.7545 37.072 60.7547C37.1713 60.7536 37.3258 60.5869 37.447 60.2137L37.7029 59.4422C38.1167 58.191 38.5452 56.8969 38.9695 55.5955C39.5777 53.752 40.2315 51.7218 40.9724 49.3865C41.196 48.6679 41.5712 48.3603 42.2273 48.3602C43.0496 48.3476 43.5881 48.3373 44.239 48.3133ZM142.904 53.0213C143.232 52.8247 143.512 52.7754 143.736 52.8758C143.955 52.9742 144.101 53.2046 144.17 53.5623C144.205 53.7517 144.286 53.9921 144.465 54.0643C144.627 54.1301 144.861 54.0589 145.144 53.8592C146.498 52.8873 147.986 52.6607 149.123 53.2537C149.775 53.5938 150.867 54.5115 150.84 56.8289C150.82 58.8197 150.813 60.1285 150.835 61.7625C150.86 63.9697 150.942 64.0654 151.819 64.4168V64.4188C152.301 64.6353 152.435 65.1353 152.356 65.535C152.279 65.9292 151.974 66.3353 151.465 66.3543C150.864 66.3606 150.209 66.3631 149.554 66.3631C148.9 66.3631 148.241 66.3606 147.62 66.3543C147.195 66.3415 146.848 66.019 146.752 65.5525C146.667 65.1414 146.8 64.6252 147.286 64.3992C148.119 64.0738 148.211 63.9639 148.249 61.7469C148.268 60.4412 148.268 58.9364 148.249 57.5115C148.231 56.4352 147.814 55.6116 147.133 55.3113C146.564 55.0602 145.886 55.2283 145.272 55.7713C144.719 56.2568 144.439 57.1044 144.413 58.365C144.394 59.6003 144.394 60.7122 144.413 61.7635C144.465 63.9857 144.534 64.0654 145.418 64.4295C145.884 64.6523 146.006 65.1503 145.925 65.5457C145.827 66.0123 145.472 66.3367 145.041 66.3524C143.76 66.3649 142.464 66.3649 141.187 66.3524C140.754 66.3367 140.411 66.0305 140.313 65.5701C140.227 65.1663 140.35 64.655 140.821 64.4227L140.97 64.3484L140.976 64.3611C141.668 64.0703 141.79 63.8404 141.821 61.7889C141.838 60.6925 141.838 59.5501 141.821 58.1922C141.802 56.74 141.623 56.5633 140.869 56.0496C140.552 55.8163 140.383 55.4734 140.398 55.1072C140.414 54.7391 140.62 54.3998 140.948 54.2C141.504 53.8799 141.96 53.5986 142.444 53.3025C142.596 53.2094 142.748 53.1165 142.904 53.0213ZM60.032 53.0115C60.3641 52.8244 60.6339 52.7817 60.8533 52.8797C61.0675 52.9759 61.2105 53.1959 61.2878 53.5525C61.3683 53.8473 61.4815 54.0299 61.613 54.074C61.7718 54.1263 61.9915 53.9894 62.1472 53.866C62.8546 53.3043 63.4694 52.8388 64.2625 52.8387C65.0556 52.8387 65.6419 53.2578 65.8709 53.991V53.994C66.1468 54.8791 65.8386 55.9677 65.1834 56.4207C64.8938 56.6205 64.2852 56.8601 63.4607 56.2147C63.2026 56.0075 62.8172 55.7995 62.4421 55.9774C61.8904 56.238 61.5498 57.1982 61.531 58.5467C61.5122 59.5804 61.5122 60.6948 61.531 61.7703C61.5624 63.8583 61.6146 63.9535 62.9226 64.3123C63.4922 64.4902 63.6844 65.018 63.6238 65.4637C63.5662 65.8905 63.262 66.3297 62.7156 66.3475C61.9132 66.3569 61.1066 66.3611 60.3523 66.3611C59.5978 66.3611 58.892 66.3569 58.2859 66.3475C57.8722 66.3265 57.5325 66.0066 57.4373 65.5486C57.3369 65.0663 57.5382 64.6208 57.95 64.4168L57.9607 64.4119C58.7716 64.0855 58.9067 63.9694 58.9402 61.782C58.96 60.5538 58.96 59.4423 58.9402 58.1785C58.9203 56.719 58.6972 56.5032 57.9939 56.0418C57.6776 55.819 57.5031 55.4864 57.5134 55.1268C57.5239 54.7564 57.728 54.412 58.0593 54.2049L58.2146 54.1072C58.8699 53.6971 59.4363 53.3432 60.032 53.0115ZM67.906 46.6365C68.2885 46.4011 68.6524 46.3595 68.9314 46.5164C69.155 46.642 69.4225 46.9491 69.4226 47.701C69.4028 52.9312 69.407 57.1286 69.4373 61.7342C69.4759 63.9399 69.5116 64.0407 70.4109 64.3973L70.447 64.4139V64.4129C70.9069 64.6399 71.0324 65.1383 70.9519 65.5369C70.8568 66.0066 70.4972 66.3309 70.0574 66.3436C69.4419 66.3498 68.799 66.3533 68.1502 66.3533C67.5012 66.3533 66.8431 66.3508 66.1941 66.3445C65.7691 66.3318 65.433 66.0254 65.3347 65.5643C65.248 65.1552 65.3677 64.6399 65.8347 64.4139L65.8455 64.41C66.7003 64.0658 66.8111 63.9284 66.8435 61.4959C66.8822 59.0845 66.868 57.1844 66.8523 54.9842C66.8439 53.9443 66.8359 52.8687 66.8328 51.6404C66.8275 50.4961 66.6846 50.1991 65.8718 49.6541C65.5541 49.4239 65.3827 49.0855 65.3953 48.7225C65.4078 48.3657 65.6014 48.0372 65.9138 47.8416C66.6315 47.4243 67.2426 47.0601 67.906 46.6365ZM134.371 54.7703C133.936 54.7703 133.524 54.9604 133.176 55.3191C132.395 56.1248 132 57.6598 132.061 59.6414C132.172 63.0153 133.516 64.7811 134.787 64.7811C135.208 64.781 135.612 64.5927 135.957 64.2371C136.743 63.4263 137.158 61.8258 137.097 59.8465C136.992 56.5144 135.646 54.7706 134.371 54.7703ZM122.837 54.7693C122.402 54.7694 121.989 54.9593 121.641 55.3182C120.861 56.1248 120.465 57.6599 120.527 59.6404C120.637 63.0144 121.982 64.7801 123.253 64.7801C123.674 64.7801 124.079 64.5919 124.424 64.2361C125.208 63.4253 125.624 61.8247 125.562 59.8455C125.457 56.5132 124.112 54.7693 122.837 54.7693ZM111.411 55.2107C110.142 55.2107 109.185 56.4878 109.185 58.1815V62.0018C109.185 63.4968 110.285 64.7606 111.586 64.7606H111.644C113.228 64.7236 114.099 63.1472 114.099 60.3113C114.099 57.2124 113.044 55.2109 111.411 55.2107ZM52.0828 60.9227C51.994 60.9227 51.8745 60.953 51.7263 61.0115C49.8215 61.7753 49.5769 62.5708 49.5769 63.1775C49.577 63.8971 49.8885 64.2624 50.5027 64.2625C51.2551 64.2625 52.3445 63.4858 52.3445 62.0828V61.4979C52.3445 61.1258 52.2704 60.9969 52.2078 60.9539C52.1775 60.933 52.135 60.9227 52.0828 60.9227ZM76.1482 54.7742C75.0446 54.7742 74.323 55.8552 74.0994 56.9266L74.1003 56.9275C74.0606 57.1159 74.0799 57.2701 74.1531 57.3611C74.2001 57.4186 74.2676 57.4481 74.3543 57.4481H77.5046C77.6092 57.4481 77.6866 57.4179 77.742 57.3572C77.8285 57.262 77.8643 57.0874 77.8445 56.8543C77.6772 54.9241 76.5035 54.7742 76.1482 54.7742Z" fill="#181D27"></path>
</svg>