<svg width="167" height="112" viewBox="0 0 167 112" fill="none" xmlns="http://www.w3.org/2000/svg">
<path d="M99.9353 61.8966V66.2439H96.7768V54.7063C96.7768 53.9703 97.3247 53.4321 98.0466 53.4321H102.123C104.983 53.4321 106.552 55.119 106.552 57.614C106.552 59.4605 105.727 60.9381 103.647 61.3375C103.647 61.3375 103.797 61.406 104.051 61.7083C104.639 62.4024 105.018 63.6138 106.815 63.5416L106.81 66.2458C101.848 66.1963 101.631 61.6722 99.9353 61.8966ZM99.9353 59.1924H101.789C102.776 59.1924 103.272 58.7265 103.272 57.6311C103.272 56.7886 102.83 56.1421 101.807 56.1421H99.9372V59.1924H99.9353Z" fill="#181D27"></path>
<path d="M39.6667 54.6606C39.6667 53.9247 40.2315 53.3884 40.9889 53.3884H44.9385C49.0638 53.3884 51.1097 56.4539 51.1097 59.7363C51.1097 62.9273 49.1704 66.1906 44.8506 66.1906H39.6667V54.6606ZM44.6392 63.4826C46.8085 63.4826 47.8651 61.6532 47.8651 59.7344C47.8651 58.0666 47.0535 56.0945 44.7795 56.0945H42.9637V63.4826H44.6392Z" fill="#181D27"></path>
<path d="M52.9781 53.3865H56.275V66.1887H52.9781V53.3865Z" fill="#181D27"></path>
<path d="M69.7638 53.3865V65.3463C69.7638 65.9377 69.0757 66.3333 68.1425 66.3333C67.0148 66.3333 66.609 66.0461 66.2032 65.4547L61.7076 58.928V66.1906H58.6744V54.6055C58.6744 53.6546 59.4673 53.3333 60.3668 53.3333C61.6365 53.3333 61.9357 53.6927 62.6408 54.7139L66.7661 60.6129V53.3865H69.7638Z" fill="#181D27"></path>
<path d="M83.2523 53.3865V65.3463C83.2523 65.9377 82.5641 66.3333 81.6309 66.3333C80.5033 66.3333 80.0975 66.0461 79.6917 65.4547L75.196 58.928V66.1906H72.1628V54.6055C72.1628 53.6546 72.9557 53.3333 73.8552 53.3333C75.125 53.3333 75.4242 53.6927 76.1292 54.7139L80.2545 60.6129V53.3865H83.2523Z" fill="#181D27"></path>
<path d="M88.9471 56.1478V58.3537H94.4843V61.115H88.9471V63.4275H94.4843V66.1887H85.6501V54.6606C85.6501 53.9247 86.1962 53.3884 86.9367 53.3884H94.4843V56.1478H88.9471Z" fill="#181D27"></path>
<path d="M108.956 64.9184V53.3903H112.237V63.4845H117.404V66.1925H110.226C109.503 66.1925 108.956 65.6544 108.956 64.9184Z" fill="#181D27"></path>
<path d="M123.1 61.7102V66.1925H119.803V61.7102L115.606 53.3903H119.045L121.461 58.6086L123.93 53.3903H127.333L123.1 61.7102Z" fill="#181D27"></path>
</svg>